<svg xmlns="http://www.w3.org/2000/svg" width="780" height="382" viewBox="0 0 780 382"><rect width="780" height="382" fill="white"/><text x="30" y="40" font-family="Arial" font-size="20" font-weight="bold" fill="#14213D">Pratiques et difficultés actuelles</text><text x="30" y="66" font-family="Arial" font-size="13" fill="#8a94a6">% des répondants (n = 6)</text><text x="330" y="122" text-anchor="end" font-family="Arial" font-size="14.5" fill="#1f2a44">A déjà perdu un document</text><rect x="354" y="104" width="356" height="30" rx="4" fill="#eef1f6"/><rect x="354" y="104" width="356.0" height="30" rx="4" fill="#C0392B"/><text x="718.0" y="125" font-family="Arial" font-size="14" font-weight="bold" fill="#14213D">100%</text><text x="330" y="180" text-anchor="end" font-family="Arial" font-size="14.5" fill="#1f2a44">Recourt aux groupes WhatsApp</text><rect x="354" y="162" width="356" height="30" rx="4" fill="#eef1f6"/><rect x="354" y="162" width="356.0" height="30" rx="4" fill="#14213D"/><text x="718.0" y="183" font-family="Arial" font-size="14" font-weight="bold" fill="#14213D">100%</text><text x="330" y="238" text-anchor="end" font-family="Arial" font-size="14.5" fill="#1f2a44">Recourt à lʼe-mail de lʼenseignant</text><rect x="354" y="220" width="356" height="30" rx="4" fill="#eef1f6"/><rect x="354" y="220" width="238.5" height="30" rx="4" fill="#2E5A88"/><text x="600.5" y="241" font-family="Arial" font-size="14" font-weight="bold" fill="#14213D">67%</text><text x="330" y="296" text-anchor="end" font-family="Arial" font-size="14.5" fill="#1f2a44">Met plus de 15 min à retrouver un cours</text><rect x="354" y="278" width="356" height="30" rx="4" fill="#eef1f6"/><rect x="354" y="278" width="178.0" height="30" rx="4" fill="#E0913F"/><text x="540.0" y="299" font-family="Arial" font-size="14" font-weight="bold" fill="#14213D">50%</text></svg>