<svg xmlns="http://www.w3.org/2000/svg" width="780" height="382" viewBox="0 0 780 382"><rect width="780" height="382" fill="white"/><text x="30" y="40" font-family="Arial" font-size="20" font-weight="bold" fill="#14213D">Fonctionnalités jugées indispensables</text><text x="30" y="66" font-family="Arial" font-size="13" fill="#8a94a6">Étudiants (n = 5)</text><text x="330" y="122" text-anchor="end" font-family="Arial" font-size="14.5" fill="#1f2a44">Téléchargement direct des cours</text><rect x="354" y="104" width="356" height="30" rx="4" fill="#eef1f6"/><rect x="354" y="104" width="356.0" height="30" rx="4" fill="#14213D"/><text x="718.0" y="125" font-family="Arial" font-size="14" font-weight="bold" fill="#14213D">100%</text><text x="330" y="180" text-anchor="end" font-family="Arial" font-size="14.5" fill="#1f2a44">Navigation facile</text><rect x="354" y="162" width="356" height="30" rx="4" fill="#eef1f6"/><rect x="354" y="162" width="356.0" height="30" rx="4" fill="#14213D"/><text x="718.0" y="183" font-family="Arial" font-size="14" font-weight="bold" fill="#14213D">100%</text><text x="330" y="238" text-anchor="end" font-family="Arial" font-size="14.5" fill="#1f2a44">Recherche par filière/matière/niveau</text><rect x="354" y="220" width="356" height="30" rx="4" fill="#eef1f6"/><rect x="354" y="220" width="284.8" height="30" rx="4" fill="#2E5A88"/><text x="646.8" y="241" font-family="Arial" font-size="14" font-weight="bold" fill="#14213D">80%</text><text x="330" y="296" text-anchor="end" font-family="Arial" font-size="14.5" fill="#1f2a44">Notification dʼun nouvel ajout</text><rect x="354" y="278" width="356" height="30" rx="4" fill="#eef1f6"/><rect x="354" y="278" width="284.8" height="30" rx="4" fill="#2E5A88"/><text x="646.8" y="299" font-family="Arial" font-size="14" font-weight="bold" fill="#14213D">80%</text></svg>