<svg xmlns="http://www.w3.org/2000/svg" width="780" height="430" viewBox="0 0 780 430"><rect width="780" height="430" fill="white"/><text x="30" y="40" font-family="Arial" font-size="20" font-weight="bold" fill="#14213D">Intérêt pour lʼaccès aux autres filières</text><text x="30" y="66" font-family="Arial" font-size="13" fill="#8a94a6">Étudiants (n = 5)</text><path d="M250.0,90.0 A140,140 0 1 1 116.9,186.7 L175.8,205.9 A78,78 0 1 0 250.0,152.0 Z" fill="#2E5A88"/><text x="314.1" y="323.2" text-anchor="middle" font-family="Arial" font-size="15" font-weight="bold" fill="white">80%</text><path d="M116.9,186.7 A140,140 0 0 1 250.0,90.0 L250.0,152.0 A78,78 0 0 0 175.8,205.9 Z" fill="#14213D"/><text x="185.9" y="146.8" text-anchor="middle" font-family="Arial" font-size="15" font-weight="bold" fill="white">20%</text><rect x="500" y="150" width="18" height="18" rx="3" fill="#2E5A88"/><text x="526" y="165" font-family="Arial" font-size="14.5" fill="#1f2a44">Parfois utile (4)</text><rect x="500" y="184" width="18" height="18" rx="3" fill="#14213D"/><text x="526" y="199" font-family="Arial" font-size="14.5" fill="#1f2a44">Souvent utile (1)</text><rect x="500" y="218" width="18" height="18" rx="3" fill="#8a94a6"/><text x="526" y="233" font-family="Arial" font-size="14.5" fill="#1f2a44">Inutile (0)</text></svg>