<svg xmlns="http://www.w3.org/2000/svg" width="780" height="430" viewBox="0 0 780 430"><rect width="780" height="430" fill="white"/><text x="30" y="40" font-family="Arial" font-size="20" font-weight="bold" fill="#14213D">Maîtrise déclarée des outils numériques</text><text x="30" y="66" font-family="Arial" font-size="13" fill="#8a94a6">Ensemble des répondants (n = 6)</text><path d="M250.0,90.0 A140,140 0 1 1 128.8,300.0 L182.5,269.0 A78,78 0 1 0 250.0,152.0 Z" fill="#2E5A88"/><text x="344.4" y="289.5" text-anchor="middle" font-family="Arial" font-size="15" font-weight="bold" fill="white">67%</text><path d="M128.8,300.0 A140,140 0 0 1 250.0,90.0 L250.0,152.0 A78,78 0 0 0 182.5,269.0 Z" fill="#14213D"/><text x="155.6" y="180.5" text-anchor="middle" font-family="Arial" font-size="15" font-weight="bold" fill="white">33%</text><rect x="500" y="150" width="18" height="18" rx="3" fill="#2E5A88"/><text x="526" y="165" font-family="Arial" font-size="14.5" fill="#1f2a44">Bon (4)</text><rect x="500" y="184" width="18" height="18" rx="3" fill="#14213D"/><text x="526" y="199" font-family="Arial" font-size="14.5" fill="#1f2a44">Excellent (2)</text></svg>