<svg xmlns="http://www.w3.org/2000/svg" width="1560" height="1120" viewBox="0 0 1560 1120"><rect width="1560" height="1120" fill="white"/><rect x="370" y="60" width="620" height="1000" rx="10" fill="none" stroke="#14213D" stroke-width="2"/><text x="680" y="92" text-anchor="middle" font-family="Arial" font-size="19" font-weight="bold" fill="#14213D">Plateforme AFI-DOCS</text><line x1="142" y1="300" x2="723" y2="173" stroke="#4a5568" stroke-width="1.3"/><line x1="142" y1="300" x2="443" y2="173" stroke="#4a5568" stroke-width="1.3"/><line x1="142" y1="300" x2="397" y2="270" stroke="#4a5568" stroke-width="1.3"/><line x1="142" y1="300" x2="407" y2="349" stroke="#4a5568" stroke-width="1.3"/><line x1="142" y1="300" x2="451" y2="451" stroke="#4a5568" stroke-width="1.3"/><line x1="142" y1="780" x2="789" y2="188" stroke="#4a5568" stroke-width="1.3"/><line x1="142" y1="780" x2="779" y2="322" stroke="#4a5568" stroke-width="1.3"/><line x1="142" y1="780" x2="764" y2="455" stroke="#4a5568" stroke-width="1.3"/><line x1="142" y1="780" x2="740" y2="584" stroke="#4a5568" stroke-width="1.3"/><line x1="142" y1="780" x2="429" y2="689" stroke="#4a5568" stroke-width="1.3"/><line x1="142" y1="780" x2="388" y2="777" stroke="#4a5568" stroke-width="1.3"/><line x1="142" y1="780" x2="425" y2="862" stroke="#4a5568" stroke-width="1.3"/><line x1="1418" y1="470" x2="894" y2="185" stroke="#4a5568" stroke-width="1.3"/><line x1="1418" y1="470" x2="922" y2="314" stroke="#4a5568" stroke-width="1.3"/><line x1="1418" y1="470" x2="957" y2="431" stroke="#4a5568" stroke-width="1.3"/><line x1="1418" y1="470" x2="949" y2="538" stroke="#4a5568" stroke-width="1.3"/><line x1="1418" y1="470" x2="913" y2="659" stroke="#4a5568" stroke-width="1.3"/><line x1="1418" y1="470" x2="889" y2="789" stroke="#4a5568" stroke-width="1.3"/><ellipse cx="830" cy="150" rx="132" ry="40" fill="#EAEEF5" stroke="#14213D" stroke-width="1.6"/><text x="830" y="155" text-anchor="middle" font-family="Arial" font-size="13.5" fill="#111">S&#x27;authentifier</text><ellipse cx="830" cy="285" rx="132" ry="40" fill="#EAEEF5" stroke="#14213D" stroke-width="1.6"/><text x="830" y="281" text-anchor="middle" font-family="Arial" font-size="13.5" fill="#111">Consulter</text><text x="830" y="299" text-anchor="middle" font-family="Arial" font-size="13.5" fill="#111">(périmètre filière / niveau)</text><ellipse cx="830" cy="420" rx="132" ry="40" fill="#EAEEF5" stroke="#14213D" stroke-width="1.6"/><text x="830" y="425" text-anchor="middle" font-family="Arial" font-size="13.5" fill="#111">Télécharger</text><ellipse cx="830" cy="555" rx="132" ry="40" fill="#EAEEF5" stroke="#14213D" stroke-width="1.6"/><text x="830" y="560" text-anchor="middle" font-family="Arial" font-size="13.5" fill="#111">Commenter</text><ellipse cx="830" cy="690" rx="132" ry="40" fill="#EAEEF5" stroke="#14213D" stroke-width="1.6"/><text x="830" y="695" text-anchor="middle" font-family="Arial" font-size="13.5" fill="#111">Évaluer ses enseignants</text><ellipse cx="830" cy="825" rx="132" ry="40" fill="#EAEEF5" stroke="#14213D" stroke-width="1.6"/><text x="830" y="830" text-anchor="middle" font-family="Arial" font-size="13.5" fill="#111">Recevoir des notifications</text><ellipse cx="520" cy="140" rx="132" ry="40" fill="#FBE9E7" stroke="#14213D" stroke-width="1.6"/><text x="520" y="136" text-anchor="middle" font-family="Arial" font-size="13.5" fill="#111">Gérer filières,</text><text x="520" y="154" text-anchor="middle" font-family="Arial" font-size="13.5" fill="#111">niveaux, matières</text><ellipse cx="520" cy="255" rx="132" ry="40" fill="#FBE9E7" stroke="#14213D" stroke-width="1.6"/><text x="520" y="251" text-anchor="middle" font-family="Arial" font-size="13.5" fill="#111">Gérer les comptes /</text><text x="520" y="269" text-anchor="middle" font-family="Arial" font-size="13.5" fill="#111">désigner les délégués</text><ellipse cx="520" cy="370" rx="132" ry="40" fill="#FBE9E7" stroke="#14213D" stroke-width="1.6"/><text x="520" y="366" text-anchor="middle" font-family="Arial" font-size="13.5" fill="#111">Modérer commentaires</text><text x="520" y="384" text-anchor="middle" font-family="Arial" font-size="13.5" fill="#111">&amp; ressources</text><ellipse cx="520" cy="485" rx="132" ry="40" fill="#FBE9E7" stroke="#14213D" stroke-width="1.6"/><text x="520" y="490" text-anchor="middle" font-family="Arial" font-size="13.5" fill="#111">Superviser l&#x27;activité</text><ellipse cx="520" cy="660" rx="132" ry="40" fill="#FBE9E7" stroke="#14213D" stroke-width="1.6"/><text x="520" y="665" text-anchor="middle" font-family="Arial" font-size="13.5" fill="#111">Publier une ressource</text><ellipse cx="520" cy="775" rx="132" ry="40" fill="#FBE9E7" stroke="#14213D" stroke-width="1.6"/><text x="520" y="780" text-anchor="middle" font-family="Arial" font-size="13.5" fill="#111">Publier des annonces</text><ellipse cx="520" cy="890" rx="132" ry="40" fill="#FBE9E7" stroke="#14213D" stroke-width="1.6"/><text x="520" y="895" text-anchor="middle" font-family="Arial" font-size="13.5" fill="#111">Publier l&#x27;emploi du temps</text><circle cx="120" cy="254" r="14" fill="none" stroke="#14213D" stroke-width="2.5"/><line x1="120" y1="268" x2="120" y2="302" stroke="#14213D" stroke-width="2.5"/><line x1="96" y1="280" x2="144" y2="280" stroke="#14213D" stroke-width="2.5"/><line x1="120" y1="302" x2="100" y2="334" stroke="#14213D" stroke-width="2.5"/><line x1="120" y1="302" x2="140" y2="334" stroke="#14213D" stroke-width="2.5"/><text x="120" y="356" text-anchor="middle" font-family="Arial" font-size="17" font-weight="bold" fill="#14213D">Administrateur</text><circle cx="120" cy="734" r="14" fill="none" stroke="#14213D" stroke-width="2.5"/><line x1="120" y1="748" x2="120" y2="782" stroke="#14213D" stroke-width="2.5"/><line x1="96" y1="760" x2="144" y2="760" stroke="#14213D" stroke-width="2.5"/><line x1="120" y1="782" x2="100" y2="814" stroke="#14213D" stroke-width="2.5"/><line x1="120" y1="782" x2="140" y2="814" stroke="#14213D" stroke-width="2.5"/><text x="120" y="836" text-anchor="middle" font-family="Arial" font-size="17" font-weight="bold" fill="#14213D">Délégué</text><circle cx="1440" cy="424" r="14" fill="none" stroke="#14213D" stroke-width="2.5"/><line x1="1440" y1="438" x2="1440" y2="472" stroke="#14213D" stroke-width="2.5"/><line x1="1416" y1="450" x2="1464" y2="450" stroke="#14213D" stroke-width="2.5"/><line x1="1440" y1="472" x2="1420" y2="504" stroke="#14213D" stroke-width="2.5"/><line x1="1440" y1="472" x2="1460" y2="504" stroke="#14213D" stroke-width="2.5"/><text x="1440" y="526" text-anchor="middle" font-family="Arial" font-size="17" font-weight="bold" fill="#14213D">Étudiant</text><rect x="40" y="1035" width="16" height="16" fill="#EAEEF5" stroke="#14213D"/><text x="62" y="1048" font-family="Arial" font-size="13" fill="#111">Cas communs</text><rect x="200" y="1035" width="16" height="16" fill="#FBE9E7" stroke="#14213D"/><text x="222" y="1048" font-family="Arial" font-size="13" fill="#111">Cas spécifiques (Admin / Délégué)</text></svg>