<svg xmlns="http://www.w3.org/2000/svg" width="1240" height="948" viewBox="0 0 1240 948"><rect width="1240" height="948" fill="white"/><defs><marker id="af" markerWidth="12" markerHeight="12" refX="9" refY="4" orient="auto"><path d="M0,0 L9,4 L0,8 z" fill="#3a4658"/></marker><marker id="ar" markerWidth="12" markerHeight="12" refX="9" refY="4" orient="auto"><path d="M0,0 L9,4 L0,8" fill="none" stroke="#3a4658" stroke-width="1.2"/></marker><marker id="afr" markerWidth="12" markerHeight="12" refX="9" refY="4" orient="auto"><path d="M0,0 L9,4 L0,8" fill="none" stroke="#C0392B" stroke-width="1.2"/></marker></defs><line x1="120" y1="94" x2="120" y2="918" stroke="#3a4658" stroke-width="1.1" stroke-dasharray="5,5"/><rect x="25" y="40" width="190" height="54" rx="4" fill="#14213D" stroke="#14213D"/><text x="120" y="62" text-anchor="middle" font-family="Arial" font-size="13.5" font-weight="bold" fill="white">Utilisateur</text><line x1="370" y1="94" x2="370" y2="918" stroke="#3a4658" stroke-width="1.1" stroke-dasharray="5,5"/><rect x="275" y="40" width="190" height="54" rx="4" fill="#14213D" stroke="#14213D"/><text x="370" y="62" text-anchor="middle" font-family="Arial" font-size="13.5" font-weight="bold" fill="white">Client</text><text x="370" y="79" text-anchor="middle" font-family="Arial" font-size="13.5" font-weight="bold" fill="white">(Web / Mobile)</text><line x1="620" y1="94" x2="620" y2="918" stroke="#3a4658" stroke-width="1.1" stroke-dasharray="5,5"/><rect x="525" y="40" width="190" height="54" rx="4" fill="#14213D" stroke="#14213D"/><text x="620" y="62" text-anchor="middle" font-family="Arial" font-size="13.5" font-weight="bold" fill="white">API Laravel</text><line x1="870" y1="94" x2="870" y2="918" stroke="#3a4658" stroke-width="1.1" stroke-dasharray="5,5"/><rect x="775" y="40" width="190" height="54" rx="4" fill="#14213D" stroke="#14213D"/><text x="870" y="62" text-anchor="middle" font-family="Arial" font-size="13.5" font-weight="bold" fill="white">MySQL</text><line x1="1120" y1="94" x2="1120" y2="918" stroke="#3a4658" stroke-width="1.1" stroke-dasharray="5,5"/><rect x="1025" y="40" width="190" height="54" rx="4" fill="#14213D" stroke="#14213D"/><text x="1120" y="62" text-anchor="middle" font-family="Arial" font-size="13.5" font-weight="bold" fill="white">Service e-mail</text><line x1="120" y1="134" x2="370" y2="134" stroke="#3a4658" stroke-width="1.6"  marker-end="url(#af)"/><text x="245.0" y="128" text-anchor="middle" font-family="Arial" font-size="12.5" fill="#111">saisit identifiant + mot de passe</text><line x1="370" y1="192" x2="620" y2="192" stroke="#3a4658" stroke-width="1.6"  marker-end="url(#af)"/><text x="495.0" y="186" text-anchor="middle" font-family="Arial" font-size="12.5" fill="#111">POST /api/login</text><line x1="620" y1="250" x2="870" y2="250" stroke="#3a4658" stroke-width="1.6"  marker-end="url(#af)"/><text x="745.0" y="244" text-anchor="middle" font-family="Arial" font-size="12.5" fill="#111">SELECT user (email)</text><line x1="870" y1="308" x2="620" y2="308" stroke="#3a4658" stroke-width="1.6" stroke-dasharray="6,4" marker-end="url(#ar)"/><text x="745.0" y="302" text-anchor="middle" font-family="Arial" font-size="12.5" fill="#111">utilisateur</text><path d="M620,366 h55 v22 h-53" fill="none" stroke="#3a4658" stroke-width="1.4" marker-end="url(#af)"/><text x="682" y="362" font-family="Arial" font-size="12.5" fill="#111">vérifie bcrypt + anti-force-brute</text><line x1="620" y1="424" x2="370" y2="424" stroke="#C0392B" stroke-width="1.6" stroke-dasharray="6,4" marker-end="url(#afr)"/><text x="495.0" y="418" text-anchor="middle" font-family="Arial" font-size="12.5" fill="#C0392B">401 — identifiants invalides (cas d&#x27;échec)</text><line x1="620" y1="482" x2="1120" y2="482" stroke="#3a4658" stroke-width="1.6"  marker-end="url(#af)"/><text x="870.0" y="476" text-anchor="middle" font-family="Arial" font-size="12.5" fill="#111">[si 2FA] envoi code OTP</text><line x1="1120" y1="540" x2="120" y2="540" stroke="#3a4658" stroke-width="1.6" stroke-dasharray="6,4" marker-end="url(#ar)"/><text x="620.0" y="534" text-anchor="middle" font-family="Arial" font-size="12.5" fill="#111">e-mail avec code OTP</text><line x1="120" y1="598" x2="370" y2="598" stroke="#3a4658" stroke-width="1.6"  marker-end="url(#af)"/><text x="245.0" y="592" text-anchor="middle" font-family="Arial" font-size="12.5" fill="#111">saisit le code OTP</text><line x1="370" y1="656" x2="620" y2="656" stroke="#3a4658" stroke-width="1.6"  marker-end="url(#af)"/><text x="495.0" y="650" text-anchor="middle" font-family="Arial" font-size="12.5" fill="#111">POST /api/login/otp</text><path d="M620,714 h55 v22 h-53" fill="none" stroke="#3a4658" stroke-width="1.4" marker-end="url(#af)"/><text x="682" y="710" font-family="Arial" font-size="12.5" fill="#111">vérifie OTP (hash + expiration)</text><line x1="620" y1="772" x2="370" y2="772" stroke="#3a4658" stroke-width="1.6" stroke-dasharray="6,4" marker-end="url(#ar)"/><text x="495.0" y="766" text-anchor="middle" font-family="Arial" font-size="12.5" fill="#111">jeton Sanctum (Bearer)</text><line x1="370" y1="830" x2="120" y2="830" stroke="#3a4658" stroke-width="1.6" stroke-dasharray="6,4" marker-end="url(#ar)"/><text x="245.0" y="824" text-anchor="middle" font-family="Arial" font-size="12.5" fill="#111">redirection selon le rôle</text></svg>