<?xml version="1.0" encoding="UTF-8" standalone="no"?>
<!DOCTYPE svg PUBLIC "-//W3C//DTD SVG 1.1//EN"
 "http://www.w3.org/Graphics/SVG/1.1/DTD/svg11.dtd">
<!-- Generated by graphviz version 2.43.0 (0)
 -->
<!-- Title: G Pages: 1 -->
<svg width="1121pt" height="1063pt"
 viewBox="0.00 0.00 1121.00 1063.00" xmlns="http://www.w3.org/2000/svg" xmlns:xlink="http://www.w3.org/1999/xlink">
<g id="graph0" class="graph" transform="scale(1 1) rotate(0) translate(4 1059)">
<title>G</title>
<polygon fill="white" stroke="transparent" points="-4,4 -4,-1059 1117,-1059 1117,4 -4,4"/>
<!-- Filiere -->
<g id="node1" class="node">
<title>Filiere</title>
<polygon fill="#14213d" stroke="transparent" points="643.5,-1027.5 643.5,-1050.5 752.5,-1050.5 752.5,-1027.5 643.5,-1027.5"/>
<polygon fill="none" stroke="black" points="643.5,-1027.5 643.5,-1050.5 752.5,-1050.5 752.5,-1027.5 643.5,-1027.5"/>
<text text-anchor="start" x="680.5" y="-1036.9" font-family="Arial" font-weight="bold" font-size="12.00" fill="white">Filiere</text>
<polygon fill="none" stroke="black" points="643.5,-957.5 643.5,-1027.5 752.5,-1027.5 752.5,-957.5 643.5,-957.5"/>
<text text-anchor="start" x="650.5" y="-1012.5" font-family="Arial" font-size="10.00">&#45; id: bigint</text>
<text text-anchor="start" x="650.5" y="-997.5" font-family="Arial" font-size="10.00">&#45; code: string</text>
<text text-anchor="start" x="650.5" y="-982.5" font-family="Arial" font-size="10.00">&#45; nom: string</text>
<text text-anchor="start" x="650.5" y="-967.5" font-family="Arial" font-size="10.00">&#45; couleur: string</text>
<polygon fill="none" stroke="black" points="643.5,-917.5 643.5,-957.5 752.5,-957.5 752.5,-917.5 643.5,-917.5"/>
<text text-anchor="start" x="650.5" y="-942.5" font-family="Arial" font-size="10.00">+ niveaux(): hasMany</text>
<text text-anchor="start" x="650.5" y="-927.5" font-family="Arial" font-size="10.00">+ users(): hasMany</text>
</g>
<!-- Niveau -->
<g id="node2" class="node">
<title>Niveau</title>
<polygon fill="#14213d" stroke="transparent" points="641.5,-821.5 641.5,-844.5 754.5,-844.5 754.5,-821.5 641.5,-821.5"/>
<polygon fill="none" stroke="black" points="641.5,-821.5 641.5,-844.5 754.5,-844.5 754.5,-821.5 641.5,-821.5"/>
<text text-anchor="start" x="678" y="-830.9" font-family="Arial" font-weight="bold" font-size="12.00" fill="white">Niveau</text>
<polygon fill="none" stroke="black" points="641.5,-751.5 641.5,-821.5 754.5,-821.5 754.5,-751.5 641.5,-751.5"/>
<text text-anchor="start" x="648.5" y="-806.5" font-family="Arial" font-size="10.00">&#45; id: bigint</text>
<text text-anchor="start" x="648.5" y="-791.5" font-family="Arial" font-size="10.00">&#45; nom: string</text>
<text text-anchor="start" x="648.5" y="-776.5" font-family="Arial" font-size="10.00">&#45; ordre: int</text>
<text text-anchor="start" x="648.5" y="-761.5" font-family="Arial" font-size="10.00">&#45; filiere_id: FK</text>
<polygon fill="none" stroke="black" points="641.5,-711.5 641.5,-751.5 754.5,-751.5 754.5,-711.5 641.5,-711.5"/>
<text text-anchor="start" x="648.5" y="-736.5" font-family="Arial" font-size="10.00">+ matieres(): hasMany</text>
<text text-anchor="start" x="648.5" y="-721.5" font-family="Arial" font-size="10.00">+ filiere(): belongsTo</text>
</g>
<!-- Filiere&#45;&gt;Niveau -->
<g id="edge1" class="edge">
<title>Filiere&#45;&gt;Niveau</title>
<path fill="none" stroke="#14213d" d="M697.5,-913.87C697.5,-892.97 697.5,-870.06 697.5,-849.17"/>
<text text-anchor="middle" x="690.74" y="-861.17" font-family="Arial" font-size="10.00">0..*</text>
<text text-anchor="middle" x="704.26" y="-896.86" font-family="Arial" font-size="10.00">1</text>
</g>
<!-- User -->
<g id="node4" class="node">
<title>User</title>
<polygon fill="#14213d" stroke="transparent" points="476.5,-616 476.5,-639 624.5,-639 624.5,-616 476.5,-616"/>
<polygon fill="none" stroke="black" points="476.5,-616 476.5,-639 624.5,-639 624.5,-616 476.5,-616"/>
<text text-anchor="start" x="536.5" y="-625.4" font-family="Arial" font-weight="bold" font-size="12.00" fill="white">User</text>
<polygon fill="none" stroke="black" points="476.5,-501 476.5,-616 624.5,-616 624.5,-501 476.5,-501"/>
<text text-anchor="start" x="483.5" y="-601" font-family="Arial" font-size="10.00">&#45; id: bigint</text>
<text text-anchor="start" x="483.5" y="-586" font-family="Arial" font-size="10.00">&#45; name/email/password</text>
<text text-anchor="start" x="483.5" y="-571" font-family="Arial" font-size="10.00">&#45; role: enum</text>
<text text-anchor="start" x="483.5" y="-556" font-family="Arial" font-size="10.00">&#45; filiere_id: FK?</text>
<text text-anchor="start" x="483.5" y="-541" font-family="Arial" font-size="10.00">&#45; niveau_id: FK?</text>
<text text-anchor="start" x="483.5" y="-526" font-family="Arial" font-size="10.00">&#45; contact_email</text>
<text text-anchor="start" x="483.5" y="-511" font-family="Arial" font-size="10.00">&#45; expo_push_token</text>
<polygon fill="none" stroke="black" points="476.5,-461 476.5,-501 624.5,-501 624.5,-461 476.5,-461"/>
<text text-anchor="start" x="483.5" y="-486" font-family="Arial" font-size="10.00">+ ressources()/commentaires()</text>
<text text-anchor="start" x="483.5" y="-471" font-family="Arial" font-size="10.00">+ filiere()/niveau()</text>
</g>
<!-- Filiere&#45;&gt;User -->
<g id="edge8" class="edge">
<title>Filiere&#45;&gt;User</title>
<path fill="none" stroke="#14213d" d="M646.17,-913.91C633.25,-893.77 620.51,-871.22 611.5,-849 584.65,-782.82 569.14,-703.39 560.49,-643.18"/>
<text text-anchor="middle" x="555.97" y="-656.03" font-family="Arial" font-size="10.00">0..*</text>
<text text-anchor="middle" x="644.13" y="-895.54" font-family="Arial" font-size="10.00">1</text>
</g>
<!-- Matiere -->
<g id="node3" class="node">
<title>Matiere</title>
<polygon fill="#14213d" stroke="transparent" points="233.5,-601 233.5,-624 356.5,-624 356.5,-601 233.5,-601"/>
<polygon fill="none" stroke="black" points="233.5,-601 233.5,-624 356.5,-624 356.5,-601 233.5,-601"/>
<text text-anchor="start" x="274" y="-610.4" font-family="Arial" font-weight="bold" font-size="12.00" fill="white">Matiere</text>
<polygon fill="none" stroke="black" points="233.5,-516 233.5,-601 356.5,-601 356.5,-516 233.5,-516"/>
<text text-anchor="start" x="240.5" y="-586" font-family="Arial" font-size="10.00">&#45; id: bigint</text>
<text text-anchor="start" x="240.5" y="-571" font-family="Arial" font-size="10.00">&#45; nom: string</text>
<text text-anchor="start" x="240.5" y="-556" font-family="Arial" font-size="10.00">&#45; semestre: string</text>
<text text-anchor="start" x="240.5" y="-541" font-family="Arial" font-size="10.00">&#45; enseignant: string</text>
<text text-anchor="start" x="240.5" y="-526" font-family="Arial" font-size="10.00">&#45; niveau_id: FK</text>
<polygon fill="none" stroke="black" points="233.5,-476 233.5,-516 356.5,-516 356.5,-476 233.5,-476"/>
<text text-anchor="start" x="240.5" y="-501" font-family="Arial" font-size="10.00">+ ressources(): hasMany</text>
<text text-anchor="start" x="240.5" y="-486" font-family="Arial" font-size="10.00">+ niveau(): belongsTo</text>
</g>
<!-- Niveau&#45;&gt;Matiere -->
<g id="edge2" class="edge">
<title>Niveau&#45;&gt;Matiere</title>
<path fill="none" stroke="#14213d" d="M632.81,-743.78C582.06,-717.07 509.82,-678.47 447.5,-643 420.02,-627.36 390.15,-609.58 364.16,-593.84"/>
<text text-anchor="middle" x="373.08" y="-604.63" font-family="Arial" font-size="10.00">0..*</text>
<text text-anchor="middle" x="623.14" y="-728.54" font-family="Arial" font-size="10.00">1</text>
</g>
<!-- Niveau&#45;&gt;User -->
<g id="edge9" class="edge">
<title>Niveau&#45;&gt;User</title>
<path fill="none" stroke="#14213d" d="M652.2,-707.69C638.95,-687.29 624.27,-664.66 610.27,-643.1"/>
<text text-anchor="middle" x="612.49" y="-656.44" font-family="Arial" font-size="10.00">0..*</text>
<text text-anchor="middle" x="649.97" y="-689.35" font-family="Arial" font-size="10.00">1</text>
</g>
<!-- ClassMessage -->
<g id="node9" class="node">
<title>ClassMessage</title>
<polygon fill="#14213d" stroke="transparent" points="810.5,-342 810.5,-365 918.5,-365 918.5,-342 810.5,-342"/>
<polygon fill="none" stroke="black" points="810.5,-342 810.5,-365 918.5,-365 918.5,-342 810.5,-342"/>
<text text-anchor="start" x="822.5" y="-351.4" font-family="Arial" font-weight="bold" font-size="12.00" fill="white">ClassMessage</text>
<polygon fill="none" stroke="black" points="810.5,-272 810.5,-342 918.5,-342 918.5,-272 810.5,-272"/>
<text text-anchor="start" x="817.5" y="-327" font-family="Arial" font-size="10.00">&#45; id: bigint</text>
<text text-anchor="start" x="817.5" y="-312" font-family="Arial" font-size="10.00">&#45; contenu: text</text>
<text text-anchor="start" x="817.5" y="-297" font-family="Arial" font-size="10.00">&#45; niveau_id: FK</text>
<text text-anchor="start" x="817.5" y="-282" font-family="Arial" font-size="10.00">&#45; user_id: FK</text>
<polygon fill="none" stroke="black" points="810.5,-232 810.5,-272 918.5,-272 918.5,-232 810.5,-232"/>
<text text-anchor="start" x="817.5" y="-257" font-family="Arial" font-size="10.00">+ auteur(): belongsTo</text>
<text text-anchor="start" x="817.5" y="-242" font-family="Arial" font-size="10.00">+ niveau(): belongsTo</text>
</g>
<!-- Niveau&#45;&gt;ClassMessage -->
<g id="edge12" class="edge">
<title>Niveau&#45;&gt;ClassMessage</title>
<path fill="none" stroke="#14213d" d="M721.87,-707.81C753.51,-617.34 808.42,-460.36 840.08,-369.82"/>
<text text-anchor="middle" x="828.91" y="-378.78" font-family="Arial" font-size="10.00">0..*</text>
<text text-anchor="middle" x="733.04" y="-693.86" font-family="Arial" font-size="10.00">1</text>
</g>
<!-- Schedule -->
<g id="node12" class="node">
<title>Schedule</title>
<polygon fill="#14213d" stroke="transparent" points="617.5,-350 617.5,-373 751.5,-373 751.5,-350 617.5,-350"/>
<polygon fill="none" stroke="black" points="617.5,-350 617.5,-373 751.5,-373 751.5,-350 617.5,-350"/>
<text text-anchor="start" x="657" y="-359.4" font-family="Arial" font-weight="bold" font-size="12.00" fill="white">Schedule</text>
<polygon fill="none" stroke="black" points="617.5,-265 617.5,-350 751.5,-350 751.5,-265 617.5,-265"/>
<text text-anchor="start" x="624.5" y="-335" font-family="Arial" font-size="10.00">&#45; id: bigint</text>
<text text-anchor="start" x="624.5" y="-320" font-family="Arial" font-size="10.00">&#45; scope: string</text>
<text text-anchor="start" x="624.5" y="-305" font-family="Arial" font-size="10.00">&#45; titre/description</text>
<text text-anchor="start" x="624.5" y="-290" font-family="Arial" font-size="10.00">&#45; chemin/type/taille</text>
<text text-anchor="start" x="624.5" y="-275" font-family="Arial" font-size="10.00">&#45; niveau_id/updated_by: FK</text>
<polygon fill="none" stroke="black" points="617.5,-225 617.5,-265 751.5,-265 751.5,-225 617.5,-225"/>
<text text-anchor="start" x="624.5" y="-250" font-family="Arial" font-size="10.00">+ niveau(): belongsTo</text>
<text text-anchor="start" x="624.5" y="-235" font-family="Arial" font-size="10.00">+ auteur(): belongsTo</text>
</g>
<!-- Niveau&#45;&gt;Schedule -->
<g id="edge17" class="edge">
<title>Niveau&#45;&gt;Schedule</title>
<path fill="none" stroke="#14213d" d="M695.6,-707.81C693.21,-619.8 689.1,-468.84 686.61,-377.35"/>
<text text-anchor="middle" x="680.24" y="-389.53" font-family="Arial" font-size="10.00">0..*</text>
<text text-anchor="middle" x="701.97" y="-690.63" font-family="Arial" font-size="10.00">1</text>
</g>
<!-- Ressource -->
<g id="node5" class="node">
<title>Ressource</title>
<polygon fill="#14213d" stroke="transparent" points="8.5,-365 8.5,-388 145.5,-388 145.5,-365 8.5,-365"/>
<polygon fill="none" stroke="black" points="8.5,-365 8.5,-388 145.5,-388 145.5,-365 8.5,-365"/>
<text text-anchor="start" x="45.5" y="-374.4" font-family="Arial" font-weight="bold" font-size="12.00" fill="white">Ressource</text>
<polygon fill="none" stroke="black" points="8.5,-250 8.5,-365 145.5,-365 145.5,-250 8.5,-250"/>
<text text-anchor="start" x="15.5" y="-350" font-family="Arial" font-size="10.00">&#45; id: bigint</text>
<text text-anchor="start" x="15.5" y="-335" font-family="Arial" font-size="10.00">&#45; titre: string</text>
<text text-anchor="start" x="15.5" y="-320" font-family="Arial" font-size="10.00">&#45; description: text?</text>
<text text-anchor="start" x="15.5" y="-305" font-family="Arial" font-size="10.00">&#45; type_fichier/chemin</text>
<text text-anchor="start" x="15.5" y="-290" font-family="Arial" font-size="10.00">&#45; taille_fichier: int</text>
<text text-anchor="start" x="15.5" y="-275" font-family="Arial" font-size="10.00">&#45; matiere_id/user_id: FK</text>
<text text-anchor="start" x="15.5" y="-260" font-family="Arial" font-size="10.00">&#45; annee_academique_id: FK</text>
<polygon fill="none" stroke="black" points="8.5,-210 8.5,-250 145.5,-250 145.5,-210 8.5,-210"/>
<text text-anchor="start" x="15.5" y="-235" font-family="Arial" font-size="10.00">+ commentaires(): hasMany</text>
<text text-anchor="start" x="15.5" y="-220" font-family="Arial" font-size="10.00">+ matiere()/auteur()/annee()</text>
</g>
<!-- Matiere&#45;&gt;Ressource -->
<g id="edge3" class="edge">
<title>Matiere&#45;&gt;Ressource</title>
<path fill="none" stroke="#14213d" d="M227.02,-471.92C203.63,-445.21 177.25,-415.08 153.18,-387.59"/>
<text text-anchor="middle" x="157.65" y="-400.45" font-family="Arial" font-size="10.00">0..*</text>
<text text-anchor="middle" x="222.55" y="-454.06" font-family="Arial" font-size="10.00">1</text>
</g>
<!-- Evaluation -->
<g id="node8" class="node">
<title>Evaluation</title>
<polygon fill="#14213d" stroke="transparent" points="204.5,-357 204.5,-380 384.5,-380 384.5,-357 204.5,-357"/>
<polygon fill="none" stroke="black" points="204.5,-357 204.5,-380 384.5,-380 384.5,-357 204.5,-357"/>
<text text-anchor="start" x="264" y="-366.4" font-family="Arial" font-weight="bold" font-size="12.00" fill="white">Evaluation</text>
<polygon fill="none" stroke="black" points="204.5,-257 204.5,-357 384.5,-357 384.5,-257 204.5,-257"/>
<text text-anchor="start" x="211.5" y="-342" font-family="Arial" font-size="10.00">&#45; id: bigint</text>
<text text-anchor="start" x="211.5" y="-327" font-family="Arial" font-size="10.00">&#45; note: int</text>
<text text-anchor="start" x="211.5" y="-312" font-family="Arial" font-size="10.00">&#45; reponses: json</text>
<text text-anchor="start" x="211.5" y="-297" font-family="Arial" font-size="10.00">&#45; semestre/enseignant</text>
<text text-anchor="start" x="211.5" y="-282" font-family="Arial" font-size="10.00">&#45; module_nom</text>
<text text-anchor="start" x="211.5" y="-267" font-family="Arial" font-size="10.00">&#45; user/matiere/filiere/niveau/annee: FK</text>
<polygon fill="none" stroke="black" points="204.5,-217 204.5,-257 384.5,-257 384.5,-217 204.5,-217"/>
<text text-anchor="start" x="211.5" y="-242" font-family="Arial" font-size="10.00">+ user()/matiere()/filiere()</text>
<text text-anchor="start" x="211.5" y="-227" font-family="Arial" font-size="10.00">+ niveau()/annee()</text>
</g>
<!-- Matiere&#45;&gt;Evaluation -->
<g id="edge11" class="edge">
<title>Matiere&#45;&gt;Evaluation</title>
<path fill="none" stroke="#14213d" d="M294.5,-471.92C294.5,-444.21 294.5,-412.82 294.5,-384.51"/>
<text text-anchor="middle" x="287.74" y="-396.51" font-family="Arial" font-size="10.00">0..*</text>
<text text-anchor="middle" x="301.26" y="-454.92" font-family="Arial" font-size="10.00">1</text>
</g>
<!-- User&#45;&gt;Ressource -->
<g id="edge5" class="edge">
<title>User&#45;&gt;Ressource</title>
<path fill="none" stroke="#14213d" d="M468.27,-498.72C442.35,-484.09 413.24,-468.87 385.5,-457 295.68,-418.56 260.07,-440.92 175.5,-392 167.88,-387.59 160.37,-382.5 153.1,-377.03"/>
<text text-anchor="middle" x="160.69" y="-388.62" font-family="Arial" font-size="10.00">0..*</text>
<text text-anchor="middle" x="458.92" y="-483.24" font-family="Arial" font-size="10.00">1</text>
</g>
<!-- Commentaire -->
<g id="node6" class="node">
<title>Commentaire</title>
<polygon fill="#14213d" stroke="transparent" points="279.5,-113.5 279.5,-136.5 402.5,-136.5 402.5,-113.5 279.5,-113.5"/>
<polygon fill="none" stroke="black" points="279.5,-113.5 279.5,-136.5 402.5,-136.5 402.5,-113.5 279.5,-113.5"/>
<text text-anchor="start" x="302.5" y="-122.9" font-family="Arial" font-weight="bold" font-size="12.00" fill="white">Commentaire</text>
<polygon fill="none" stroke="black" points="279.5,-43.5 279.5,-113.5 402.5,-113.5 402.5,-43.5 279.5,-43.5"/>
<text text-anchor="start" x="286.5" y="-98.5" font-family="Arial" font-size="10.00">&#45; id: bigint</text>
<text text-anchor="start" x="286.5" y="-83.5" font-family="Arial" font-size="10.00">&#45; contenu: text</text>
<text text-anchor="start" x="286.5" y="-68.5" font-family="Arial" font-size="10.00">&#45; ressource_id: FK</text>
<text text-anchor="start" x="286.5" y="-53.5" font-family="Arial" font-size="10.00">&#45; user_id: FK</text>
<polygon fill="none" stroke="black" points="279.5,-3.5 279.5,-43.5 402.5,-43.5 402.5,-3.5 279.5,-3.5"/>
<text text-anchor="start" x="286.5" y="-28.5" font-family="Arial" font-size="10.00">+ ressource(): belongsTo</text>
<text text-anchor="start" x="286.5" y="-13.5" font-family="Arial" font-size="10.00">+ auteur(): belongsTo</text>
</g>
<!-- User&#45;&gt;Commentaire -->
<g id="edge7" class="edge">
<title>User&#45;&gt;Commentaire</title>
<path fill="none" stroke="#14213d" d="M517.49,-456.68C491.66,-386.86 453.67,-289.16 414.5,-206 404.39,-184.54 392.37,-161.75 380.98,-141.14"/>
<text text-anchor="middle" x="382.04" y="-154.6" font-family="Arial" font-size="10.00">0..*</text>
<text text-anchor="middle" x="518.76" y="-438.23" font-family="Arial" font-size="10.00">1</text>
</g>
<!-- User&#45;&gt;Evaluation -->
<g id="edge10" class="edge">
<title>User&#45;&gt;Evaluation</title>
<path fill="none" stroke="#14213d" d="M468.44,-469.19C440.66,-442.16 409.54,-411.89 381.39,-384.51"/>
<text text-anchor="middle" x="387.07" y="-396.97" font-family="Arial" font-size="10.00">0..*</text>
<text text-anchor="middle" x="462.76" y="-451.73" font-family="Arial" font-size="10.00">1</text>
</g>
<!-- User&#45;&gt;ClassMessage -->
<g id="edge13" class="edge">
<title>User&#45;&gt;ClassMessage</title>
<path fill="none" stroke="#14213d" d="M632.53,-500.06C678.31,-471.11 735.26,-432.3 781.5,-392 789.45,-385.07 797.39,-377.43 805.04,-369.59"/>
<text text-anchor="middle" x="790.06" y="-372.7" font-family="Arial" font-size="10.00">0..*</text>
<text text-anchor="middle" x="648.39" y="-495.45" font-family="Arial" font-size="10.00">1</text>
</g>
<!-- Post -->
<g id="node10" class="node">
<title>Post</title>
<polygon fill="#14213d" stroke="transparent" points="978.5,-350 978.5,-373 1105.5,-373 1105.5,-350 978.5,-350"/>
<polygon fill="none" stroke="black" points="978.5,-350 978.5,-373 1105.5,-373 1105.5,-350 978.5,-350"/>
<text text-anchor="start" x="1028.5" y="-359.4" font-family="Arial" font-weight="bold" font-size="12.00" fill="white">Post</text>
<polygon fill="none" stroke="black" points="978.5,-265 978.5,-350 1105.5,-350 1105.5,-265 978.5,-265"/>
<text text-anchor="start" x="985.5" y="-335" font-family="Arial" font-size="10.00">&#45; id: bigint</text>
<text text-anchor="start" x="985.5" y="-320" font-family="Arial" font-size="10.00">&#45; contenu: text</text>
<text text-anchor="start" x="985.5" y="-305" font-family="Arial" font-size="10.00">&#45; image: string?</text>
<text text-anchor="start" x="985.5" y="-290" font-family="Arial" font-size="10.00">&#45; target_niveau_id: FK?</text>
<text text-anchor="start" x="985.5" y="-275" font-family="Arial" font-size="10.00">&#45; user_id: FK</text>
<polygon fill="none" stroke="black" points="978.5,-225 978.5,-265 1105.5,-265 1105.5,-225 978.5,-225"/>
<text text-anchor="start" x="985.5" y="-250" font-family="Arial" font-size="10.00">+ auteur()/commentaires()</text>
<text text-anchor="start" x="985.5" y="-235" font-family="Arial" font-size="10.00">+ filieres()/niveaux(): BtM</text>
</g>
<!-- User&#45;&gt;Post -->
<g id="edge14" class="edge">
<title>User&#45;&gt;Post</title>
<path fill="none" stroke="#14213d" d="M632.86,-527.17C716.74,-502.58 848.33,-457.32 948.5,-392 955.73,-387.29 962.86,-381.94 969.77,-376.26"/>
<text text-anchor="middle" x="954.25" y="-377.68" font-family="Arial" font-size="10.00">0..*</text>
<text text-anchor="middle" x="648.7" y="-526.96" font-family="Arial" font-size="10.00">1</text>
</g>
<!-- PostComment -->
<g id="node11" class="node">
<title>PostComment</title>
<polygon fill="#14213d" stroke="transparent" points="608.5,-113.5 608.5,-136.5 715.5,-136.5 715.5,-113.5 608.5,-113.5"/>
<polygon fill="none" stroke="black" points="608.5,-113.5 608.5,-136.5 715.5,-136.5 715.5,-113.5 608.5,-113.5"/>
<text text-anchor="start" x="621" y="-122.9" font-family="Arial" font-weight="bold" font-size="12.00" fill="white">PostComment</text>
<polygon fill="none" stroke="black" points="608.5,-43.5 608.5,-113.5 715.5,-113.5 715.5,-43.5 608.5,-43.5"/>
<text text-anchor="start" x="615.5" y="-98.5" font-family="Arial" font-size="10.00">&#45; id: bigint</text>
<text text-anchor="start" x="615.5" y="-83.5" font-family="Arial" font-size="10.00">&#45; contenu: text</text>
<text text-anchor="start" x="615.5" y="-68.5" font-family="Arial" font-size="10.00">&#45; post_id: FK</text>
<text text-anchor="start" x="615.5" y="-53.5" font-family="Arial" font-size="10.00">&#45; user_id: FK</text>
<polygon fill="none" stroke="black" points="608.5,-3.5 608.5,-43.5 715.5,-43.5 715.5,-3.5 608.5,-3.5"/>
<text text-anchor="start" x="615.5" y="-28.5" font-family="Arial" font-size="10.00">+ post(): belongsTo</text>
<text text-anchor="start" x="615.5" y="-13.5" font-family="Arial" font-size="10.00">+ auteur(): belongsTo</text>
</g>
<!-- User&#45;&gt;PostComment -->
<g id="edge16" class="edge">
<title>User&#45;&gt;PostComment</title>
<path fill="none" stroke="#14213d" d="M551.14,-456.76C553.89,-386.56 562.69,-288.32 588.5,-206 595.41,-183.94 606.06,-161.35 617.1,-141.12"/>
<text text-anchor="middle" x="604.28" y="-148.19" font-family="Arial" font-size="10.00">0..*</text>
<text text-anchor="middle" x="558.57" y="-440.09" font-family="Arial" font-size="10.00">1</text>
</g>
<!-- User&#45;&gt;Schedule -->
<g id="edge18" class="edge">
<title>User&#45;&gt;Schedule</title>
<path fill="none" stroke="#14213d" d="M600.02,-456.99C614.11,-430.81 629.31,-402.56 642.88,-377.34"/>
<text text-anchor="middle" x="630.05" y="-384.41" font-family="Arial" font-size="10.00">0..*</text>
<text text-anchor="middle" x="612.84" y="-444.92" font-family="Arial" font-size="10.00">1</text>
</g>
<!-- Ressource&#45;&gt;Commentaire -->
<g id="edge6" class="edge">
<title>Ressource&#45;&gt;Commentaire</title>
<path fill="none" stroke="#14213d" d="M153.07,-225.94C160.59,-219.13 168.16,-212.39 175.5,-206 206.16,-179.31 240.94,-150.72 270.63,-126.79"/>
<text text-anchor="middle" x="255.1" y="-128.15" font-family="Arial" font-size="10.00">0..*</text>
<text text-anchor="middle" x="168.36" y="-218.73" font-family="Arial" font-size="10.00">1</text>
</g>
<!-- AnneeAcademique -->
<g id="node7" class="node">
<title>AnneeAcademique</title>
<polygon fill="#14213d" stroke="transparent" points="15.5,-578 15.5,-601 138.5,-601 138.5,-578 15.5,-578"/>
<polygon fill="none" stroke="black" points="15.5,-578 15.5,-601 138.5,-601 138.5,-578 15.5,-578"/>
<text text-anchor="start" x="22" y="-587.4" font-family="Arial" font-weight="bold" font-size="12.00" fill="white">AnneeAcademique</text>
<polygon fill="none" stroke="black" points="15.5,-523 15.5,-578 138.5,-578 138.5,-523 15.5,-523"/>
<text text-anchor="start" x="22.5" y="-563" font-family="Arial" font-size="10.00">&#45; id: bigint</text>
<text text-anchor="start" x="22.5" y="-548" font-family="Arial" font-size="10.00">&#45; libelle: string</text>
<text text-anchor="start" x="22.5" y="-533" font-family="Arial" font-size="10.00">&#45; est_courante: bool</text>
<polygon fill="none" stroke="black" points="15.5,-498 15.5,-523 138.5,-523 138.5,-498 15.5,-498"/>
<text text-anchor="start" x="22.5" y="-508" font-family="Arial" font-size="10.00">+ ressources(): hasMany</text>
</g>
<!-- AnneeAcademique&#45;&gt;Ressource -->
<g id="edge4" class="edge">
<title>AnneeAcademique&#45;&gt;Ressource</title>
<path fill="none" stroke="#14213d" d="M76.5,-494.36C76.5,-464.44 76.5,-426.56 76.5,-392.2"/>
<text text-anchor="middle" x="69.74" y="-404.2" font-family="Arial" font-size="10.00">0..*</text>
<text text-anchor="middle" x="83.26" y="-477.35" font-family="Arial" font-size="10.00">1</text>
</g>
<!-- Post&#45;&gt;Filiere -->
<g id="edge19" class="edge">
<title>Post&#45;&gt;Filiere</title>
<path fill="none" stroke="#14213d" d="M1014.52,-377.05C988.96,-447.52 948.09,-554.03 904.5,-643 857.79,-738.35 839,-758.48 783.5,-849 770.53,-870.15 756.12,-892.95 742.86,-913.66"/>
<text text-anchor="middle" x="756.37" y="-902.59" font-family="Arial" font-size="10.00">0..*</text>
<text text-anchor="middle" x="1003.19" y="-385.84" font-family="Arial" font-size="10.00">0..*</text>
</g>
<!-- Post&#45;&gt;Niveau -->
<g id="edge20" class="edge">
<title>Post&#45;&gt;Niveau</title>
<path fill="none" stroke="#14213d" d="M991.55,-377.28C945.39,-447.69 874.09,-553.95 807.5,-643 791.42,-664.5 773.23,-687.31 756.33,-707.91"/>
<text text-anchor="middle" x="770.74" y="-698.47" font-family="Arial" font-size="10.00">0..*</text>
<text text-anchor="middle" x="977.93" y="-383.18" font-family="Arial" font-size="10.00">0..*</text>
</g>
<!-- Post&#45;&gt;PostComment -->
<g id="edge15" class="edge">
<title>Post&#45;&gt;PostComment</title>
<path fill="none" stroke="#14213d" d="M969.98,-222.68C962.97,-216.73 955.76,-211.07 948.5,-206 876.86,-156.02 783.7,-116.31 723.27,-93.34"/>
<text text-anchor="middle" x="734.35" y="-102.39" font-family="Arial" font-size="10.00">0..*</text>
<text text-anchor="middle" x="963.25" y="-205.66" font-family="Arial" font-size="10.00">1</text>
</g>
</g>
</svg>
