<svg xmlns="http://www.w3.org/2000/svg" width="1490" height="890" viewBox="0 0 1490 890"><rect width="1490" height="890" fill="white"/><defs><marker id="af" markerWidth="12" markerHeight="12" refX="9" refY="4" orient="auto"><path d="M0,0 L9,4 L0,8 z" fill="#3a4658"/></marker><marker id="ar" markerWidth="12" markerHeight="12" refX="9" refY="4" orient="auto"><path d="M0,0 L9,4 L0,8" fill="none" stroke="#3a4658" stroke-width="1.2"/></marker><marker id="afr" markerWidth="12" markerHeight="12" refX="9" refY="4" orient="auto"><path d="M0,0 L9,4 L0,8" fill="none" stroke="#C0392B" stroke-width="1.2"/></marker></defs><line x1="120" y1="94" x2="120" y2="860" stroke="#3a4658" stroke-width="1.1" stroke-dasharray="5,5"/><rect x="25" y="40" width="190" height="54" rx="4" fill="#14213D" stroke="#14213D"/><text x="120" y="62" text-anchor="middle" font-family="Arial" font-size="13.5" font-weight="bold" fill="white">Délégué</text><line x1="370" y1="94" x2="370" y2="860" stroke="#3a4658" stroke-width="1.1" stroke-dasharray="5,5"/><rect x="275" y="40" width="190" height="54" rx="4" fill="#14213D" stroke="#14213D"/><text x="370" y="62" text-anchor="middle" font-family="Arial" font-size="13.5" font-weight="bold" fill="white">Client</text><line x1="620" y1="94" x2="620" y2="860" stroke="#3a4658" stroke-width="1.1" stroke-dasharray="5,5"/><rect x="525" y="40" width="190" height="54" rx="4" fill="#14213D" stroke="#14213D"/><text x="620" y="62" text-anchor="middle" font-family="Arial" font-size="13.5" font-weight="bold" fill="white">API Laravel</text><line x1="870" y1="94" x2="870" y2="860" stroke="#3a4658" stroke-width="1.1" stroke-dasharray="5,5"/><rect x="775" y="40" width="190" height="54" rx="4" fill="#14213D" stroke="#14213D"/><text x="870" y="62" text-anchor="middle" font-family="Arial" font-size="13.5" font-weight="bold" fill="white">Policy filière</text><line x1="1120" y1="94" x2="1120" y2="860" stroke="#3a4658" stroke-width="1.1" stroke-dasharray="5,5"/><rect x="1025" y="40" width="190" height="54" rx="4" fill="#14213D" stroke="#14213D"/><text x="1120" y="62" text-anchor="middle" font-family="Arial" font-size="13.5" font-weight="bold" fill="white">MySQL</text><line x1="1370" y1="94" x2="1370" y2="860" stroke="#3a4658" stroke-width="1.1" stroke-dasharray="5,5"/><rect x="1275" y="40" width="190" height="54" rx="4" fill="#14213D" stroke="#14213D"/><text x="1370" y="62" text-anchor="middle" font-family="Arial" font-size="13.5" font-weight="bold" fill="white">Stockage</text><line x1="120" y1="134" x2="370" y2="134" stroke="#3a4658" stroke-width="1.6"  marker-end="url(#af)"/><text x="245.0" y="128" text-anchor="middle" font-family="Arial" font-size="12.5" fill="#111">formulaire (filière verrouillée) + fichier</text><line x1="370" y1="192" x2="620" y2="192" stroke="#3a4658" stroke-width="1.6"  marker-end="url(#af)"/><text x="495.0" y="186" text-anchor="middle" font-family="Arial" font-size="12.5" fill="#111">POST /api/ressources</text><path d="M620,250 h55 v22 h-53" fill="none" stroke="#3a4658" stroke-width="1.4" marker-end="url(#af)"/><text x="682" y="246" font-family="Arial" font-size="12.5" fill="#111">auth:sanctum + middleware rôle</text><line x1="620" y1="308" x2="870" y2="308" stroke="#3a4658" stroke-width="1.6"  marker-end="url(#af)"/><text x="745.0" y="302" text-anchor="middle" font-family="Arial" font-size="12.5" fill="#111">vérifie filière de la ressource</text><line x1="870" y1="366" x2="620" y2="366" stroke="#3a4658" stroke-width="1.6" stroke-dasharray="6,4" marker-end="url(#ar)"/><text x="745.0" y="360" text-anchor="middle" font-family="Arial" font-size="12.5" fill="#111">autorisé / refusé</text><line x1="620" y1="424" x2="370" y2="424" stroke="#C0392B" stroke-width="1.6" stroke-dasharray="6,4" marker-end="url(#afr)"/><text x="495.0" y="418" text-anchor="middle" font-family="Arial" font-size="12.5" fill="#C0392B">403 Forbidden (Policy KO — cas d&#x27;échec)</text><line x1="620" y1="482" x2="1370" y2="482" stroke="#3a4658" stroke-width="1.6"  marker-end="url(#af)"/><text x="995.0" y="476" text-anchor="middle" font-family="Arial" font-size="12.5" fill="#111">enregistre le fichier</text><line x1="1370" y1="540" x2="620" y2="540" stroke="#3a4658" stroke-width="1.6" stroke-dasharray="6,4" marker-end="url(#ar)"/><text x="995.0" y="534" text-anchor="middle" font-family="Arial" font-size="12.5" fill="#111">chemin du fichier</text><line x1="620" y1="598" x2="1120" y2="598" stroke="#3a4658" stroke-width="1.6"  marker-end="url(#af)"/><text x="870.0" y="592" text-anchor="middle" font-family="Arial" font-size="12.5" fill="#111">INSERT ressource</text><line x1="1120" y1="656" x2="620" y2="656" stroke="#3a4658" stroke-width="1.6" stroke-dasharray="6,4" marker-end="url(#ar)"/><text x="870.0" y="650" text-anchor="middle" font-family="Arial" font-size="12.5" fill="#111">ok</text><line x1="620" y1="714" x2="370" y2="714" stroke="#3a4658" stroke-width="1.6" stroke-dasharray="6,4" marker-end="url(#ar)"/><text x="495.0" y="708" text-anchor="middle" font-family="Arial" font-size="12.5" fill="#111">201 Created (ressource publiée)</text><line x1="370" y1="772" x2="120" y2="772" stroke="#3a4658" stroke-width="1.6" stroke-dasharray="6,4" marker-end="url(#ar)"/><text x="245.0" y="766" text-anchor="middle" font-family="Arial" font-size="12.5" fill="#111">confirmation</text></svg>