<?xml version="1.0" encoding="UTF-8" standalone="no"?>
<!DOCTYPE svg PUBLIC "-//W3C//DTD SVG 1.1//EN"
 "http://www.w3.org/Graphics/SVG/1.1/DTD/svg11.dtd">
<!-- Generated by graphviz version 2.43.0 (0)
 -->
<!-- Title: G Pages: 1 -->
<svg width="724pt" height="366pt"
 viewBox="0.00 0.00 724.00 366.00" xmlns="http://www.w3.org/2000/svg" xmlns:xlink="http://www.w3.org/1999/xlink">
<g id="graph0" class="graph" transform="scale(1 1) rotate(0) translate(4 362)">
<title>G</title>
<polygon fill="white" stroke="transparent" points="-4,4 -4,-362 720,-362 720,4 -4,4"/>
<!-- web -->
<g id="node1" class="node">
<title>web</title>
<polygon fill="#eaeef5" stroke="#14213d" points="132,-199 4,-199 4,-195 0,-195 0,-191 4,-191 4,-169 0,-169 0,-165 4,-165 4,-161 132,-161 132,-199"/>
<polyline fill="none" stroke="#14213d" points="4,-195 8,-195 8,-191 4,-191 "/>
<polyline fill="none" stroke="#14213d" points="4,-169 8,-169 8,-165 4,-165 "/>
<text text-anchor="middle" x="68" y="-183.8" font-family="Arial" font-size="14.00">«SPA» Client Web</text>
<text text-anchor="middle" x="68" y="-168.8" font-family="Arial" font-size="14.00">React + Vite</text>
</g>
<!-- backend -->
<g id="node4" class="node">
<title>backend</title>
<polygon fill="#eaeef5" stroke="#14213d" points="435,-199 300,-199 300,-195 296,-195 296,-191 300,-191 300,-169 296,-169 296,-165 300,-165 300,-161 435,-161 435,-199"/>
<polyline fill="none" stroke="#14213d" points="300,-195 304,-195 304,-191 300,-191 "/>
<polyline fill="none" stroke="#14213d" points="300,-169 304,-169 304,-165 300,-165 "/>
<text text-anchor="middle" x="367.5" y="-183.8" font-family="Arial" font-size="14.00">«API REST»</text>
<text text-anchor="middle" x="367.5" y="-168.8" font-family="Arial" font-size="14.00">Backend Laravel 11</text>
</g>
<!-- web&#45;&gt;backend -->
<g id="edge1" class="edge">
<title>web&#45;&gt;backend</title>
<path fill="none" stroke="#14213d" d="M132.09,-180C178.11,-180 240.72,-180 289.66,-180"/>
<polygon fill="#14213d" stroke="#14213d" points="289.89,-183.5 299.89,-180 289.89,-176.5 289.89,-183.5"/>
<text text-anchor="middle" x="215" y="-192.8" font-family="Arial" font-size="9.00">HTTPS / REST</text>
<text text-anchor="middle" x="215" y="-182.8" font-family="Arial" font-size="9.00">(Bearer)</text>
</g>
<!-- mobile -->
<g id="node2" class="node">
<title>mobile</title>
<polygon fill="#eaeef5" stroke="#14213d" points="136,-90 0,-90 0,-86 -4,-86 -4,-82 0,-82 0,-60 -4,-60 -4,-56 0,-56 0,-52 136,-52 136,-90"/>
<polyline fill="none" stroke="#14213d" points="0,-86 4,-86 4,-82 0,-82 "/>
<polyline fill="none" stroke="#14213d" points="0,-60 4,-60 4,-56 0,-56 "/>
<text text-anchor="middle" x="68" y="-74.8" font-family="Arial" font-size="14.00">«Mobile» Client</text>
<text text-anchor="middle" x="68" y="-59.8" font-family="Arial" font-size="14.00">React Native / Expo</text>
</g>
<!-- sqlite -->
<g id="node3" class="node">
<title>sqlite</title>
<polygon fill="#eaeef5" stroke="#14213d" points="435,-62 294,-62 294,-26 441,-26 441,-56 435,-62"/>
<polyline fill="none" stroke="#14213d" points="435,-62 435,-56 "/>
<polyline fill="none" stroke="#14213d" points="441,-56 435,-56 "/>
<text text-anchor="middle" x="367.5" y="-40.3" font-family="Arial" font-size="14.00">SQLite (cache offline)</text>
</g>
<!-- mobile&#45;&gt;sqlite -->
<g id="edge3" class="edge">
<title>mobile&#45;&gt;sqlite</title>
<path fill="none" stroke="#14213d" d="M125.18,-51.94C143.4,-46.65 163.86,-41.64 183,-39 215.76,-34.49 252.11,-34.46 283.76,-36.01"/>
<polygon fill="#14213d" stroke="#14213d" points="283.69,-39.51 293.86,-36.57 284.07,-32.52 283.69,-39.51"/>
<text text-anchor="middle" x="215" y="-51.8" font-family="Arial" font-size="9.00">lecture/écriture</text>
<text text-anchor="middle" x="215" y="-41.8" font-family="Arial" font-size="9.00">locale</text>
</g>
<!-- mobile&#45;&gt;backend -->
<g id="edge2" class="edge">
<title>mobile&#45;&gt;backend</title>
<path fill="none" stroke="#14213d" d="M121.16,-90.11C172.41,-108.89 250.61,-137.54 304.89,-157.43"/>
<polygon fill="#14213d" stroke="#14213d" points="303.81,-160.76 314.4,-160.91 306.21,-154.18 303.81,-160.76"/>
<text text-anchor="middle" x="215" y="-147.8" font-family="Arial" font-size="9.00">HTTPS / REST</text>
<text text-anchor="middle" x="215" y="-137.8" font-family="Arial" font-size="9.00">(Bearer)</text>
</g>
<!-- sanctum -->
<g id="node5" class="node">
<title>sanctum</title>
<polygon fill="#eaeef5" stroke="#14213d" points="709.5,-358 603.5,-358 603.5,-354 599.5,-354 599.5,-350 603.5,-350 603.5,-328 599.5,-328 599.5,-324 603.5,-324 603.5,-320 709.5,-320 709.5,-358"/>
<polyline fill="none" stroke="#14213d" points="603.5,-354 607.5,-354 607.5,-350 603.5,-350 "/>
<polyline fill="none" stroke="#14213d" points="603.5,-328 607.5,-328 607.5,-324 603.5,-324 "/>
<text text-anchor="middle" x="656.5" y="-342.8" font-family="Arial" font-size="14.00">Auth Sanctum</text>
<text text-anchor="middle" x="656.5" y="-327.8" font-family="Arial" font-size="14.00">(jetons Bearer)</text>
</g>
<!-- backend&#45;&gt;sanctum -->
<g id="edge4" class="edge">
<title>backend&#45;&gt;sanctum</title>
<path fill="none" stroke="#14213d" d="M401.63,-199.08C425.56,-212.81 458.69,-231.7 488,-248 529.37,-271.01 576.81,-296.72 610.62,-314.92"/>
<polygon fill="#14213d" stroke="#14213d" points="609.31,-318.2 619.77,-319.85 612.63,-312.03 609.31,-318.2"/>
<text text-anchor="middle" x="519" y="-282.8" font-family="Arial" font-size="9.00">authentifie</text>
</g>
<!-- mysql -->
<g id="node6" class="node">
<title>mysql</title>
<path fill="#eaeef5" stroke="#14213d" d="M693.5,-273.73C693.5,-275.53 676.92,-277 656.5,-277 636.08,-277 619.5,-275.53 619.5,-273.73 619.5,-273.73 619.5,-244.27 619.5,-244.27 619.5,-242.47 636.08,-241 656.5,-241 676.92,-241 693.5,-242.47 693.5,-244.27 693.5,-244.27 693.5,-273.73 693.5,-273.73"/>
<path fill="none" stroke="#14213d" d="M693.5,-273.73C693.5,-271.92 676.92,-270.45 656.5,-270.45 636.08,-270.45 619.5,-271.92 619.5,-273.73"/>
<text text-anchor="middle" x="656.5" y="-255.3" font-family="Arial" font-size="14.00">MySQL 8</text>
</g>
<!-- backend&#45;&gt;mysql -->
<g id="edge5" class="edge">
<title>backend&#45;&gt;mysql</title>
<path fill="none" stroke="#14213d" d="M435.06,-198.32C488.6,-213.06 562.41,-233.38 609.55,-246.35"/>
<polygon fill="#14213d" stroke="#14213d" points="608.91,-249.81 619.48,-249.08 610.77,-243.06 608.91,-249.81"/>
<text text-anchor="middle" x="519" y="-230.8" font-family="Arial" font-size="9.00">Eloquent / SQL</text>
</g>
<!-- storage -->
<g id="node7" class="node">
<title>storage</title>
<polygon fill="#eaeef5" stroke="#14213d" points="716,-198 713,-202 692,-202 689,-198 597,-198 597,-162 716,-162 716,-198"/>
<text text-anchor="middle" x="656.5" y="-176.3" font-family="Arial" font-size="14.00">Stockage fichiers</text>
</g>
<!-- backend&#45;&gt;storage -->
<g id="edge6" class="edge">
<title>backend&#45;&gt;storage</title>
<path fill="none" stroke="#14213d" d="M435.06,-180C480.48,-180 540.49,-180 586.43,-180"/>
<polygon fill="#14213d" stroke="#14213d" points="586.6,-183.5 596.6,-180 586.6,-176.5 586.6,-183.5"/>
<text text-anchor="middle" x="519" y="-182.8" font-family="Arial" font-size="9.00">fichiers</text>
</g>
<!-- smtp -->
<g id="node8" class="node">
<title>smtp</title>
<polygon fill="#eaeef5" stroke="#14213d" points="708.5,-119 604.5,-119 604.5,-81 708.5,-81 708.5,-119"/>
<text text-anchor="middle" x="656.5" y="-103.8" font-family="Arial" font-size="14.00">Service SMTP</text>
<text text-anchor="middle" x="656.5" y="-88.8" font-family="Arial" font-size="14.00">(e&#45;mails OTP)</text>
</g>
<!-- backend&#45;&gt;smtp -->
<g id="edge7" class="edge">
<title>backend&#45;&gt;smtp</title>
<path fill="none" stroke="#14213d" d="M435.06,-161.45C483.14,-148.04 547.58,-130.08 594.36,-117.04"/>
<polygon fill="#14213d" stroke="#14213d" points="595.37,-120.39 604.07,-114.34 593.49,-113.65 595.37,-120.39"/>
<text text-anchor="middle" x="519" y="-146.8" font-family="Arial" font-size="9.00">envoi e&#45;mail</text>
</g>
<!-- push -->
<g id="node9" class="node">
<title>push</title>
<polygon fill="#eaeef5" stroke="#14213d" points="701,-38 612,-38 612,0 701,0 701,-38"/>
<text text-anchor="middle" x="656.5" y="-22.8" font-family="Arial" font-size="14.00">Expo / FCM</text>
<text text-anchor="middle" x="656.5" y="-7.8" font-family="Arial" font-size="14.00">(push)</text>
</g>
<!-- backend&#45;&gt;push -->
<g id="edge8" class="edge">
<title>backend&#45;&gt;push</title>
<path fill="none" stroke="#14213d" d="M400.54,-160.85C424.51,-146.62 458.16,-126.84 488,-110 529.23,-86.73 576.68,-61.05 610.53,-42.92"/>
<polygon fill="#14213d" stroke="#14213d" points="612.53,-45.82 619.7,-38.02 609.23,-39.65 612.53,-45.82"/>
<text text-anchor="middle" x="519" y="-112.8" font-family="Arial" font-size="9.00">notifications</text>
</g>
<!-- nginx -->
<g id="node10" class="node">
<title>nginx</title>
<polygon fill="#eaeef5" stroke="#14213d" points="135,-278 5,-278 1,-274 1,-242 131,-242 135,-246 135,-278"/>
<polyline fill="none" stroke="#14213d" points="131,-274 1,-274 "/>
<polyline fill="none" stroke="#14213d" points="131,-274 131,-242 "/>
<polyline fill="none" stroke="#14213d" points="131,-274 135,-278 "/>
<text text-anchor="middle" x="68" y="-256.3" font-family="Arial" font-size="14.00">Nginx — VPS OVH</text>
</g>
<!-- nginx&#45;&gt;backend -->
<g id="edge9" class="edge">
<title>nginx&#45;&gt;backend</title>
<path fill="none" stroke="#14213d" d="M135.02,-242.25C180.91,-229.91 242.19,-213.43 290.17,-200.53"/>
<polygon fill="#14213d" stroke="#14213d" points="291.14,-203.89 299.89,-197.91 289.32,-197.13 291.14,-203.89"/>
<text text-anchor="middle" x="215" y="-229.8" font-family="Arial" font-size="9.00">héberge / proxy</text>
</g>
</g>
</svg>
