<?xml version="1.0" encoding="UTF-8" standalone="no"?>
<!DOCTYPE svg PUBLIC "-//W3C//DTD SVG 1.1//EN"
 "http://www.w3.org/Graphics/SVG/1.1/DTD/svg11.dtd">
<!-- Generated by graphviz version 2.43.0 (0)
 -->
<!-- Title: G Pages: 1 -->
<svg width="881pt" height="1244pt"
 viewBox="0.00 0.00 881.00 1243.50" xmlns="http://www.w3.org/2000/svg" xmlns:xlink="http://www.w3.org/1999/xlink">
<g id="graph0" class="graph" transform="scale(1 1) rotate(0) translate(4 1239.5)">
<title>G</title>
<polygon fill="white" stroke="transparent" points="-4,4 -4,-1239.5 877,-1239.5 877,4 -4,4"/>
<!-- users -->
<g id="node1" class="node">
<title>users</title>
<polygon fill="#14213d" stroke="transparent" points="335,-657.5 335,-678.5 424,-678.5 424,-657.5 335,-657.5"/>
<polygon fill="none" stroke="black" points="335,-657.5 335,-678.5 424,-678.5 424,-657.5 335,-657.5"/>
<text text-anchor="start" x="363" y="-665.9" font-family="Arial" font-weight="bold" font-size="12.00" fill="white">users</text>
<polygon fill="none" stroke="black" points="335,-514.5 335,-657.5 424,-657.5 424,-514.5 335,-514.5"/>
<text text-anchor="start" x="341" y="-644.5" font-family="Arial" font-weight="bold" font-size="10.00">id</text>
<text text-anchor="start" x="351" y="-644.5" font-family="Arial" font-size="10.00"> </text>
<text text-anchor="start" x="355" y="-644.5" font-family="Arial" font-size="9.00" fill="#c0392b">[PK]</text>
<text text-anchor="start" x="341" y="-628.5" font-family="Arial" font-size="10.00">name</text>
<text text-anchor="start" x="341" y="-613.5" font-family="Arial" font-size="10.00">email</text>
<text text-anchor="start" x="341" y="-598.5" font-family="Arial" font-size="10.00">password</text>
<text text-anchor="start" x="341" y="-583.5" font-family="Arial" font-size="10.00">role</text>
<text text-anchor="start" x="341" y="-569.5" font-family="Arial" font-size="10.00">filiere_id </text>
<text text-anchor="start" x="381" y="-569.5" font-family="Arial" font-size="9.00" fill="#c0392b">[FK]</text>
<text text-anchor="start" x="341" y="-554.5" font-family="Arial" font-size="10.00">niveau_id </text>
<text text-anchor="start" x="386" y="-554.5" font-family="Arial" font-size="9.00" fill="#c0392b">[FK]</text>
<text text-anchor="start" x="341" y="-538.5" font-family="Arial" font-size="10.00">contact_email</text>
<text text-anchor="start" x="341" y="-523.5" font-family="Arial" font-size="10.00">expo_push_token</text>
</g>
<!-- ressources -->
<g id="node6" class="node">
<title>ressources</title>
<polygon fill="#14213d" stroke="transparent" points="541,-979.5 541,-1000.5 669,-1000.5 669,-979.5 541,-979.5"/>
<polygon fill="none" stroke="black" points="541,-979.5 541,-1000.5 669,-1000.5 669,-979.5 541,-979.5"/>
<text text-anchor="start" x="572.5" y="-987.9" font-family="Arial" font-weight="bold" font-size="12.00" fill="white">ressources</text>
<polygon fill="none" stroke="black" points="541,-836.5 541,-979.5 669,-979.5 669,-836.5 541,-836.5"/>
<text text-anchor="start" x="547" y="-966.5" font-family="Arial" font-weight="bold" font-size="10.00">id</text>
<text text-anchor="start" x="557" y="-966.5" font-family="Arial" font-size="10.00"> </text>
<text text-anchor="start" x="561" y="-966.5" font-family="Arial" font-size="9.00" fill="#c0392b">[PK]</text>
<text text-anchor="start" x="547" y="-950.5" font-family="Arial" font-size="10.00">titre</text>
<text text-anchor="start" x="547" y="-935.5" font-family="Arial" font-size="10.00">description</text>
<text text-anchor="start" x="547" y="-920.5" font-family="Arial" font-size="10.00">type_fichier</text>
<text text-anchor="start" x="547" y="-905.5" font-family="Arial" font-size="10.00">chemin_fichier</text>
<text text-anchor="start" x="547" y="-890.5" font-family="Arial" font-size="10.00">taille_fichier</text>
<text text-anchor="start" x="547" y="-876.5" font-family="Arial" font-size="10.00">matiere_id </text>
<text text-anchor="start" x="596" y="-876.5" font-family="Arial" font-size="9.00" fill="#c0392b">[FK]</text>
<text text-anchor="start" x="547" y="-861.5" font-family="Arial" font-size="10.00">user_id </text>
<text text-anchor="start" x="582" y="-861.5" font-family="Arial" font-size="9.00" fill="#c0392b">[FK]</text>
<text text-anchor="start" x="547" y="-846.5" font-family="Arial" font-size="10.00">annee_academique_id </text>
<text text-anchor="start" x="647" y="-846.5" font-family="Arial" font-size="9.00" fill="#c0392b">[FK]</text>
</g>
<!-- users&#45;&gt;ressources -->
<g id="edge5" class="edge">
<title>users&#45;&gt;ressources</title>
<path fill="none" stroke="#14213d" d="M431.67,-670.78C463.37,-716.34 504.25,-775.11 538.24,-823.97"/>
<polygon fill="#14213d" stroke="#14213d" points="538.36,-824.14 540.37,-834.91 541.21,-828.24 544.07,-832.35 544.07,-832.35 544.07,-832.35 541.21,-828.24 547.76,-829.78 538.36,-824.14 538.36,-824.14"/>
<text text-anchor="middle" x="531.1" y="-822.61" font-family="Arial" font-size="9.00">0..*</text>
<text text-anchor="middle" x="444.64" y="-676.12" font-family="Arial" font-size="9.00">1</text>
</g>
<!-- commentaires -->
<g id="node7" class="node">
<title>commentaires</title>
<polygon fill="#14213d" stroke="transparent" points="769.5,-659.5 769.5,-680.5 859.5,-680.5 859.5,-659.5 769.5,-659.5"/>
<polygon fill="none" stroke="black" points="769.5,-659.5 769.5,-680.5 859.5,-680.5 859.5,-659.5 769.5,-659.5"/>
<text text-anchor="start" x="773.5" y="-667.9" font-family="Arial" font-weight="bold" font-size="12.00" fill="white">commentaires</text>
<polygon fill="none" stroke="black" points="769.5,-591.5 769.5,-659.5 859.5,-659.5 859.5,-591.5 769.5,-591.5"/>
<text text-anchor="start" x="775.5" y="-646.5" font-family="Arial" font-weight="bold" font-size="10.00">id</text>
<text text-anchor="start" x="785.5" y="-646.5" font-family="Arial" font-size="10.00"> </text>
<text text-anchor="start" x="789.5" y="-646.5" font-family="Arial" font-size="9.00" fill="#c0392b">[PK]</text>
<text text-anchor="start" x="775.5" y="-630.5" font-family="Arial" font-size="10.00">contenu</text>
<text text-anchor="start" x="775.5" y="-616.5" font-family="Arial" font-size="10.00">ressource_id </text>
<text text-anchor="start" x="834.5" y="-616.5" font-family="Arial" font-size="9.00" fill="#c0392b">[FK]</text>
<text text-anchor="start" x="775.5" y="-601.5" font-family="Arial" font-size="10.00">user_id </text>
<text text-anchor="start" x="810.5" y="-601.5" font-family="Arial" font-size="9.00" fill="#c0392b">[FK]</text>
</g>
<!-- users&#45;&gt;commentaires -->
<g id="edge7" class="edge">
<title>users&#45;&gt;commentaires</title>
<path fill="none" stroke="#14213d" d="M431.86,-601.29C511.87,-608.67 665.14,-622.81 751.1,-630.74"/>
<polygon fill="#14213d" stroke="#14213d" points="751.29,-630.76 760.83,-636.16 756.26,-631.22 761.24,-631.68 761.24,-631.68 761.24,-631.68 756.26,-631.22 761.66,-627.2 751.29,-630.76 751.29,-630.76"/>
<text text-anchor="middle" x="747.12" y="-634.54" font-family="Arial" font-size="9.00">0..*</text>
<text text-anchor="middle" x="445.98" y="-594.02" font-family="Arial" font-size="9.00">1</text>
</g>
<!-- evaluations -->
<g id="node8" class="node">
<title>evaluations</title>
<polygon fill="#14213d" stroke="transparent" points="541,-1210.5 541,-1231.5 669,-1231.5 669,-1210.5 541,-1210.5"/>
<polygon fill="none" stroke="black" points="541,-1210.5 541,-1231.5 669,-1231.5 669,-1210.5 541,-1210.5"/>
<text text-anchor="start" x="571.5" y="-1218.9" font-family="Arial" font-weight="bold" font-size="12.00" fill="white">evaluations</text>
<polygon fill="none" stroke="black" points="541,-1037.5 541,-1210.5 669,-1210.5 669,-1037.5 541,-1037.5"/>
<text text-anchor="start" x="547" y="-1197.5" font-family="Arial" font-weight="bold" font-size="10.00">id</text>
<text text-anchor="start" x="557" y="-1197.5" font-family="Arial" font-size="10.00"> </text>
<text text-anchor="start" x="561" y="-1197.5" font-family="Arial" font-size="9.00" fill="#c0392b">[PK]</text>
<text text-anchor="start" x="547" y="-1181.5" font-family="Arial" font-size="10.00">note</text>
<text text-anchor="start" x="547" y="-1166.5" font-family="Arial" font-size="10.00">reponses</text>
<text text-anchor="start" x="547" y="-1151.5" font-family="Arial" font-size="10.00">semestre</text>
<text text-anchor="start" x="547" y="-1136.5" font-family="Arial" font-size="10.00">enseignant</text>
<text text-anchor="start" x="547" y="-1121.5" font-family="Arial" font-size="10.00">module_nom</text>
<text text-anchor="start" x="547" y="-1107.5" font-family="Arial" font-size="10.00">user_id </text>
<text text-anchor="start" x="582" y="-1107.5" font-family="Arial" font-size="9.00" fill="#c0392b">[FK]</text>
<text text-anchor="start" x="547" y="-1092.5" font-family="Arial" font-size="10.00">matiere_id </text>
<text text-anchor="start" x="596" y="-1092.5" font-family="Arial" font-size="9.00" fill="#c0392b">[FK]</text>
<text text-anchor="start" x="547" y="-1077.5" font-family="Arial" font-size="10.00">filiere_id </text>
<text text-anchor="start" x="587" y="-1077.5" font-family="Arial" font-size="9.00" fill="#c0392b">[FK]</text>
<text text-anchor="start" x="547" y="-1062.5" font-family="Arial" font-size="10.00">niveau_id </text>
<text text-anchor="start" x="592" y="-1062.5" font-family="Arial" font-size="9.00" fill="#c0392b">[FK]</text>
<text text-anchor="start" x="547" y="-1047.5" font-family="Arial" font-size="10.00">annee_academique_id </text>
<text text-anchor="start" x="647" y="-1047.5" font-family="Arial" font-size="9.00" fill="#c0392b">[FK]</text>
</g>
<!-- users&#45;&gt;evaluations -->
<g id="edge10" class="edge">
<title>users&#45;&gt;evaluations</title>
<path fill="none" stroke="#14213d" d="M412.85,-682.65C425.84,-717.06 440.8,-757.09 454,-793.5 490.27,-893.53 487.23,-923.44 533,-1019.5 533.75,-1021.07 534.51,-1022.64 535.28,-1024.21"/>
<polygon fill="#14213d" stroke="#14213d" points="535.35,-1024.35 535.87,-1035.3 537.62,-1028.8 539.88,-1033.26 539.88,-1033.26 539.88,-1033.26 537.62,-1028.8 543.89,-1031.22 535.35,-1024.35 535.35,-1024.35"/>
<text text-anchor="middle" x="528.07" y="-1021.81" font-family="Arial" font-size="9.00">0..*</text>
<text text-anchor="middle" x="423.58" y="-690.93" font-family="Arial" font-size="9.00">1</text>
</g>
<!-- class_messages -->
<g id="node9" class="node">
<title>class_messages</title>
<polygon fill="#14213d" stroke="transparent" points="553,-489.5 553,-510.5 657,-510.5 657,-489.5 553,-489.5"/>
<polygon fill="none" stroke="black" points="553,-489.5 553,-510.5 657,-510.5 657,-489.5 553,-489.5"/>
<text text-anchor="start" x="557" y="-497.9" font-family="Arial" font-weight="bold" font-size="12.00" fill="white">class_messages</text>
<polygon fill="none" stroke="black" points="553,-421.5 553,-489.5 657,-489.5 657,-421.5 553,-421.5"/>
<text text-anchor="start" x="559" y="-476.5" font-family="Arial" font-weight="bold" font-size="10.00">id</text>
<text text-anchor="start" x="569" y="-476.5" font-family="Arial" font-size="10.00"> </text>
<text text-anchor="start" x="573" y="-476.5" font-family="Arial" font-size="9.00" fill="#c0392b">[PK]</text>
<text text-anchor="start" x="559" y="-460.5" font-family="Arial" font-size="10.00">contenu</text>
<text text-anchor="start" x="559" y="-446.5" font-family="Arial" font-size="10.00">niveau_id </text>
<text text-anchor="start" x="604" y="-446.5" font-family="Arial" font-size="9.00" fill="#c0392b">[FK]</text>
<text text-anchor="start" x="559" y="-431.5" font-family="Arial" font-size="10.00">user_id </text>
<text text-anchor="start" x="594" y="-431.5" font-family="Arial" font-size="9.00" fill="#c0392b">[FK]</text>
</g>
<!-- users&#45;&gt;class_messages -->
<g id="edge16" class="edge">
<title>users&#45;&gt;class_messages</title>
<path fill="none" stroke="#14213d" d="M431.67,-566.51C462.63,-548.55 502.35,-525.49 535.85,-506.05"/>
<polygon fill="#14213d" stroke="#14213d" points="536.02,-505.95 546.93,-504.82 540.35,-503.44 544.67,-500.93 544.67,-500.93 544.67,-500.93 540.35,-503.44 542.41,-497.04 536.02,-505.95 536.02,-505.95"/>
<text text-anchor="middle" x="536.1" y="-511.04" font-family="Arial" font-size="9.00">0..*</text>
<text text-anchor="middle" x="440.25" y="-552.01" font-family="Arial" font-size="9.00">1</text>
</g>
<!-- posts -->
<g id="node10" class="node">
<title>posts</title>
<polygon fill="#14213d" stroke="transparent" points="554,-207.5 554,-228.5 657,-228.5 657,-207.5 554,-207.5"/>
<polygon fill="none" stroke="black" points="554,-207.5 554,-228.5 657,-228.5 657,-207.5 554,-207.5"/>
<text text-anchor="start" x="589" y="-215.9" font-family="Arial" font-weight="bold" font-size="12.00" fill="white">posts</text>
<polygon fill="none" stroke="black" points="554,-124.5 554,-207.5 657,-207.5 657,-124.5 554,-124.5"/>
<text text-anchor="start" x="560" y="-194.5" font-family="Arial" font-weight="bold" font-size="10.00">id</text>
<text text-anchor="start" x="570" y="-194.5" font-family="Arial" font-size="10.00"> </text>
<text text-anchor="start" x="574" y="-194.5" font-family="Arial" font-size="9.00" fill="#c0392b">[PK]</text>
<text text-anchor="start" x="560" y="-178.5" font-family="Arial" font-size="10.00">contenu</text>
<text text-anchor="start" x="560" y="-163.5" font-family="Arial" font-size="10.00">image</text>
<text text-anchor="start" x="560" y="-149.5" font-family="Arial" font-size="10.00">target_niveau_id </text>
<text text-anchor="start" x="635" y="-149.5" font-family="Arial" font-size="9.00" fill="#c0392b">[FK]</text>
<text text-anchor="start" x="560" y="-134.5" font-family="Arial" font-size="10.00">user_id </text>
<text text-anchor="start" x="595" y="-134.5" font-family="Arial" font-size="9.00" fill="#c0392b">[FK]</text>
</g>
<!-- users&#45;&gt;posts -->
<g id="edge17" class="edge">
<title>users&#45;&gt;posts</title>
<path fill="none" stroke="#14213d" d="M407.67,-510.16C433.55,-436.59 476.65,-329.99 533,-247.5 534.87,-244.77 536.85,-242.04 538.92,-239.35"/>
<polygon fill="#14213d" stroke="#14213d" points="539.08,-239.15 548.86,-234.2 542.22,-235.26 545.36,-231.37 545.36,-231.37 545.36,-231.37 542.22,-235.26 541.85,-228.55 539.08,-239.15 539.08,-239.15"/>
<text text-anchor="middle" x="541.76" y="-243.73" font-family="Arial" font-size="9.00">0..*</text>
<text text-anchor="middle" x="406.3" y="-493.02" font-family="Arial" font-size="9.00">1</text>
</g>
<!-- post_comments -->
<g id="node11" class="node">
<title>post_comments</title>
<polygon fill="#14213d" stroke="transparent" points="764.5,-415.5 764.5,-436.5 865.5,-436.5 865.5,-415.5 764.5,-415.5"/>
<polygon fill="none" stroke="black" points="764.5,-415.5 764.5,-436.5 865.5,-436.5 865.5,-415.5 764.5,-415.5"/>
<text text-anchor="start" x="768.5" y="-423.9" font-family="Arial" font-weight="bold" font-size="12.00" fill="white">post_comments</text>
<polygon fill="none" stroke="black" points="764.5,-347.5 764.5,-415.5 865.5,-415.5 865.5,-347.5 764.5,-347.5"/>
<text text-anchor="start" x="770.5" y="-402.5" font-family="Arial" font-weight="bold" font-size="10.00">id</text>
<text text-anchor="start" x="780.5" y="-402.5" font-family="Arial" font-size="10.00"> </text>
<text text-anchor="start" x="784.5" y="-402.5" font-family="Arial" font-size="9.00" fill="#c0392b">[PK]</text>
<text text-anchor="start" x="770.5" y="-386.5" font-family="Arial" font-size="10.00">contenu</text>
<text text-anchor="start" x="770.5" y="-372.5" font-family="Arial" font-size="10.00">post_id </text>
<text text-anchor="start" x="805.5" y="-372.5" font-family="Arial" font-size="9.00" fill="#c0392b">[FK]</text>
<text text-anchor="start" x="770.5" y="-357.5" font-family="Arial" font-size="10.00">user_id </text>
<text text-anchor="start" x="805.5" y="-357.5" font-family="Arial" font-size="9.00" fill="#c0392b">[FK]</text>
</g>
<!-- users&#45;&gt;post_comments -->
<g id="edge20" class="edge">
<title>users&#45;&gt;post_comments</title>
<path fill="none" stroke="#14213d" d="M431.67,-593.58C493.49,-588.19 598.45,-572.88 677,-529.5 713.13,-509.55 746.04,-477.16 770.49,-448.89"/>
<polygon fill="#14213d" stroke="#14213d" points="770.69,-448.66 780.59,-443.95 773.92,-444.85 777.16,-441.03 777.16,-441.03 777.16,-441.03 773.92,-444.85 773.73,-438.12 770.69,-448.66 770.69,-448.66"/>
<text text-anchor="middle" x="773.19" y="-453.3" font-family="Arial" font-size="9.00">0..*</text>
<text text-anchor="middle" x="444.59" y="-583.75" font-family="Arial" font-size="9.00">1</text>
</g>
<!-- schedules -->
<g id="node14" class="node">
<title>schedules</title>
<polygon fill="#14213d" stroke="transparent" points="564,-363.5 564,-384.5 646,-384.5 646,-363.5 564,-363.5"/>
<polygon fill="none" stroke="black" points="564,-363.5 564,-384.5 646,-384.5 646,-363.5 564,-363.5"/>
<text text-anchor="start" x="575" y="-371.9" font-family="Arial" font-weight="bold" font-size="12.00" fill="white">schedules</text>
<polygon fill="none" stroke="black" points="564,-265.5 564,-363.5 646,-363.5 646,-265.5 564,-265.5"/>
<text text-anchor="start" x="570" y="-350.5" font-family="Arial" font-weight="bold" font-size="10.00">id</text>
<text text-anchor="start" x="580" y="-350.5" font-family="Arial" font-size="10.00"> </text>
<text text-anchor="start" x="584" y="-350.5" font-family="Arial" font-size="9.00" fill="#c0392b">[PK]</text>
<text text-anchor="start" x="570" y="-334.5" font-family="Arial" font-size="10.00">scope</text>
<text text-anchor="start" x="570" y="-319.5" font-family="Arial" font-size="10.00">titre</text>
<text text-anchor="start" x="570" y="-304.5" font-family="Arial" font-size="10.00">chemin_fichier</text>
<text text-anchor="start" x="570" y="-290.5" font-family="Arial" font-size="10.00">niveau_id </text>
<text text-anchor="start" x="615" y="-290.5" font-family="Arial" font-size="9.00" fill="#c0392b">[FK]</text>
<text text-anchor="start" x="570" y="-275.5" font-family="Arial" font-size="10.00">updated_by </text>
<text text-anchor="start" x="624" y="-275.5" font-family="Arial" font-size="9.00" fill="#c0392b">[FK]</text>
</g>
<!-- users&#45;&gt;schedules -->
<g id="edge26" class="edge">
<title>users&#45;&gt;schedules</title>
<path fill="none" stroke="#14213d" d="M431.65,-529.05C460.8,-491.57 498.25,-444.39 533,-403.5 538.09,-397.52 543.46,-391.35 548.88,-385.22"/>
<polygon fill="#14213d" stroke="#14213d" points="549.11,-384.97 559.12,-380.5 552.44,-381.24 555.76,-377.51 555.76,-377.51 555.76,-377.51 552.44,-381.24 552.4,-374.51 549.11,-384.97 549.11,-384.97"/>
<text text-anchor="middle" x="551.45" y="-389.67" font-family="Arial" font-size="9.00">0..*</text>
<text text-anchor="middle" x="435.01" y="-512.23" font-family="Arial" font-size="9.00">1</text>
</g>
<!-- activites -->
<g id="node15" class="node">
<title>activites</title>
<polygon fill="#14213d" stroke="transparent" points="771.5,-884.5 771.5,-905.5 858.5,-905.5 858.5,-884.5 771.5,-884.5"/>
<polygon fill="none" stroke="black" points="771.5,-884.5 771.5,-905.5 858.5,-905.5 858.5,-884.5 771.5,-884.5"/>
<text text-anchor="start" x="791" y="-892.9" font-family="Arial" font-weight="bold" font-size="12.00" fill="white">activites</text>
<polygon fill="none" stroke="black" points="771.5,-801.5 771.5,-884.5 858.5,-884.5 858.5,-801.5 771.5,-801.5"/>
<text text-anchor="start" x="777.5" y="-871.5" font-family="Arial" font-weight="bold" font-size="10.00">id</text>
<text text-anchor="start" x="787.5" y="-871.5" font-family="Arial" font-size="10.00"> </text>
<text text-anchor="start" x="791.5" y="-871.5" font-family="Arial" font-size="9.00" fill="#c0392b">[PK]</text>
<text text-anchor="start" x="777.5" y="-855.5" font-family="Arial" font-size="10.00">type</text>
<text text-anchor="start" x="777.5" y="-840.5" font-family="Arial" font-size="10.00">plateforme</text>
<text text-anchor="start" x="777.5" y="-826.5" font-family="Arial" font-size="10.00">user_id </text>
<text text-anchor="start" x="812.5" y="-826.5" font-family="Arial" font-size="9.00" fill="#c0392b">[FK]</text>
<text text-anchor="start" x="777.5" y="-811.5" font-family="Arial" font-size="10.00">ressource_id </text>
<text text-anchor="start" x="836.5" y="-811.5" font-family="Arial" font-size="9.00" fill="#c0392b">[FK]</text>
</g>
<!-- users&#45;&gt;activites -->
<g id="edge27" class="edge">
<title>users&#45;&gt;activites</title>
<path fill="none" stroke="#14213d" d="M431.6,-665.08C458.76,-697.2 494.41,-733.75 533,-758.5 569.94,-782.19 682.36,-816.53 753.15,-836.78"/>
<polygon fill="#14213d" stroke="#14213d" points="753.24,-836.81 761.62,-843.87 758.05,-838.18 762.86,-839.55 762.86,-839.55 762.86,-839.55 758.05,-838.18 764.09,-835.22 753.24,-836.81 753.24,-836.81"/>
<text text-anchor="middle" x="748.05" y="-839.72" font-family="Arial" font-size="9.00">0..*</text>
<text text-anchor="middle" x="445.28" y="-669.05" font-family="Arial" font-size="9.00">1</text>
</g>
<!-- trusted_devices -->
<g id="node16" class="node">
<title>trusted_devices</title>
<polygon fill="#14213d" stroke="transparent" points="555,-719.5 555,-740.5 655,-740.5 655,-719.5 555,-719.5"/>
<polygon fill="none" stroke="black" points="555,-719.5 555,-740.5 655,-740.5 655,-719.5 555,-719.5"/>
<text text-anchor="start" x="559" y="-727.9" font-family="Arial" font-weight="bold" font-size="12.00" fill="white">trusted_devices</text>
<polygon fill="none" stroke="black" points="555,-666.5 555,-719.5 655,-719.5 655,-666.5 555,-666.5"/>
<text text-anchor="start" x="561" y="-706.5" font-family="Arial" font-weight="bold" font-size="10.00">id</text>
<text text-anchor="start" x="571" y="-706.5" font-family="Arial" font-size="10.00"> </text>
<text text-anchor="start" x="575" y="-706.5" font-family="Arial" font-size="9.00" fill="#c0392b">[PK]</text>
<text text-anchor="start" x="561" y="-691.5" font-family="Arial" font-size="10.00">user_id </text>
<text text-anchor="start" x="596" y="-691.5" font-family="Arial" font-size="9.00" fill="#c0392b">[FK]</text>
<text text-anchor="start" x="561" y="-675.5" font-family="Arial" font-size="10.00">device_hash</text>
</g>
<!-- users&#45;&gt;trusted_devices -->
<g id="edge29" class="edge">
<title>users&#45;&gt;trusted_devices</title>
<path fill="none" stroke="#14213d" d="M431.67,-621.18C463.09,-636.19 503.53,-655.51 537.34,-671.66"/>
<polygon fill="#14213d" stroke="#14213d" points="537.66,-671.81 544.74,-680.18 542.17,-673.97 546.68,-676.12 546.68,-676.12 546.68,-676.12 542.17,-673.97 548.62,-672.06 537.66,-671.81 537.66,-671.81"/>
<text text-anchor="middle" x="531.68" y="-673.78" font-family="Arial" font-size="9.00">0..*</text>
<text text-anchor="middle" x="446.67" y="-619.12" font-family="Arial" font-size="9.00">1</text>
</g>
<!-- filieres -->
<g id="node2" class="node">
<title>filieres</title>
<polygon fill="#14213d" stroke="transparent" points="8,-563.5 8,-584.5 54,-584.5 54,-563.5 8,-563.5"/>
<polygon fill="none" stroke="black" points="8,-563.5 8,-584.5 54,-584.5 54,-563.5 8,-563.5"/>
<text text-anchor="start" x="12" y="-571.9" font-family="Arial" font-weight="bold" font-size="12.00" fill="white">filieres</text>
<polygon fill="none" stroke="black" points="8,-495.5 8,-563.5 54,-563.5 54,-495.5 8,-495.5"/>
<text text-anchor="start" x="14" y="-550.5" font-family="Arial" font-weight="bold" font-size="10.00">id</text>
<text text-anchor="start" x="24" y="-550.5" font-family="Arial" font-size="10.00"> </text>
<text text-anchor="start" x="28" y="-550.5" font-family="Arial" font-size="9.00" fill="#c0392b">[PK]</text>
<text text-anchor="start" x="14" y="-534.5" font-family="Arial" font-size="10.00">code</text>
<text text-anchor="start" x="14" y="-519.5" font-family="Arial" font-size="10.00">nom</text>
<text text-anchor="start" x="14" y="-504.5" font-family="Arial" font-size="10.00">couleur</text>
</g>
<!-- filieres&#45;&gt;users -->
<g id="edge8" class="edge">
<title>filieres&#45;&gt;users</title>
<path fill="none" stroke="#14213d" d="M62.1,-545.37C118.55,-554.51 241.35,-574.38 316.13,-586.49"/>
<polygon fill="#14213d" stroke="#14213d" points="316.48,-586.54 325.63,-592.58 321.41,-587.34 326.35,-588.14 326.35,-588.14 326.35,-588.14 321.41,-587.34 327.07,-583.7 316.48,-586.54 316.48,-586.54"/>
<text text-anchor="middle" x="311.92" y="-590.03" font-family="Arial" font-size="9.00">0..*</text>
<text text-anchor="middle" x="76.53" y="-539.09" font-family="Arial" font-size="9.00">1</text>
</g>
<!-- niveaux -->
<g id="node3" class="node">
<title>niveaux</title>
<polygon fill="#14213d" stroke="transparent" points="149,-498.5 149,-519.5 217,-519.5 217,-498.5 149,-498.5"/>
<polygon fill="none" stroke="black" points="149,-498.5 149,-519.5 217,-519.5 217,-498.5 149,-498.5"/>
<text text-anchor="start" x="160" y="-506.9" font-family="Arial" font-weight="bold" font-size="12.00" fill="white">niveaux</text>
<polygon fill="none" stroke="black" points="149,-430.5 149,-498.5 217,-498.5 217,-430.5 149,-430.5"/>
<text text-anchor="start" x="155" y="-485.5" font-family="Arial" font-weight="bold" font-size="10.00">id</text>
<text text-anchor="start" x="165" y="-485.5" font-family="Arial" font-size="10.00"> </text>
<text text-anchor="start" x="169" y="-485.5" font-family="Arial" font-size="9.00" fill="#c0392b">[PK]</text>
<text text-anchor="start" x="155" y="-469.5" font-family="Arial" font-size="10.00">nom</text>
<text text-anchor="start" x="155" y="-454.5" font-family="Arial" font-size="10.00">ordre</text>
<text text-anchor="start" x="155" y="-440.5" font-family="Arial" font-size="10.00">filiere_id </text>
<text text-anchor="start" x="195" y="-440.5" font-family="Arial" font-size="9.00" fill="#c0392b">[FK]</text>
</g>
<!-- filieres&#45;&gt;niveaux -->
<g id="edge1" class="edge">
<title>filieres&#45;&gt;niveaux</title>
<path fill="none" stroke="#14213d" d="M62.35,-527.35C82.22,-518.74 108.65,-507.28 131.62,-497.33"/>
<polygon fill="#14213d" stroke="#14213d" points="131.71,-497.29 142.68,-497.44 136.3,-495.3 140.89,-493.32 140.89,-493.32 140.89,-493.32 136.3,-495.3 139.1,-489.19 131.71,-497.29 131.71,-497.29"/>
<text text-anchor="middle" x="130.93" y="-502.34" font-family="Arial" font-size="9.00">0..*</text>
<text text-anchor="middle" x="72.31" y="-513.92" font-family="Arial" font-size="9.00">1</text>
</g>
<!-- filieres&#45;&gt;evaluations -->
<g id="edge12" class="edge">
<title>filieres&#45;&gt;evaluations</title>
<path fill="none" stroke="#14213d" d="M39.94,-589.06C60.83,-699.75 128.32,-970.84 304,-1096.5 367.23,-1141.73 457.69,-1147.35 522.72,-1144.05"/>
<polygon fill="#14213d" stroke="#14213d" points="522.94,-1144.03 533.19,-1147.94 527.94,-1143.74 532.93,-1143.45 532.93,-1143.45 532.93,-1143.45 527.94,-1143.74 532.66,-1138.95 522.94,-1144.03 522.94,-1144.03"/>
<text text-anchor="middle" x="519.73" y="-1148.37" font-family="Arial" font-size="9.00">0..*</text>
<text text-anchor="middle" x="48.88" y="-598.91" font-family="Arial" font-size="9.00">1</text>
</g>
<!-- post_filiere -->
<g id="node12" class="node">
<title>post_filiere</title>
<polygon fill="#14213d" stroke="transparent" points="778.5,-41.5 778.5,-62.5 850.5,-62.5 850.5,-41.5 778.5,-41.5"/>
<polygon fill="none" stroke="black" points="778.5,-41.5 778.5,-62.5 850.5,-62.5 850.5,-41.5 778.5,-41.5"/>
<text text-anchor="start" x="782.5" y="-49.9" font-family="Arial" font-weight="bold" font-size="12.00" fill="white">post_filiere</text>
<polygon fill="none" stroke="black" points="778.5,-3.5 778.5,-41.5 850.5,-41.5 850.5,-3.5 778.5,-3.5"/>
<text text-anchor="start" x="784.5" y="-28.5" font-family="Arial" font-size="10.00">post_id </text>
<text text-anchor="start" x="819.5" y="-28.5" font-family="Arial" font-size="9.00" fill="#c0392b">[FK]</text>
<text text-anchor="start" x="784.5" y="-13.5" font-family="Arial" font-size="10.00">filiere_id </text>
<text text-anchor="start" x="824.5" y="-13.5" font-family="Arial" font-size="9.00" fill="#c0392b">[FK]</text>
</g>
<!-- filieres&#45;&gt;post_filiere -->
<g id="edge22" class="edge">
<title>filieres&#45;&gt;post_filiere</title>
<path fill="none" stroke="#14213d" d="M49.56,-491.75C83.81,-404.11 168.3,-220.69 304,-130.5 447.77,-34.95 661.95,-28.11 760.45,-30.7"/>
<polygon fill="#14213d" stroke="#14213d" points="760.47,-30.7 770.33,-35.51 765.47,-30.86 770.46,-31.01 770.46,-31.01 770.46,-31.01 765.47,-30.86 770.6,-26.51 760.47,-30.7 760.47,-30.7"/>
<text text-anchor="middle" x="756.68" y="-34.73" font-family="Arial" font-size="9.00">0..*</text>
<text text-anchor="middle" x="48.81" y="-474.57" font-family="Arial" font-size="9.00">1</text>
</g>
<!-- niveaux&#45;&gt;users -->
<g id="edge9" class="edge">
<title>niveaux&#45;&gt;users</title>
<path fill="none" stroke="#14213d" d="M225.14,-501.16C251.97,-517.89 287.44,-540.02 317.46,-558.74"/>
<polygon fill="#14213d" stroke="#14213d" points="317.69,-558.89 323.8,-568 321.94,-561.53 326.18,-564.18 326.18,-564.18 326.18,-564.18 321.94,-561.53 328.56,-560.36 317.69,-558.89 317.69,-558.89"/>
<text text-anchor="middle" x="311.29" y="-560.16" font-family="Arial" font-size="9.00">0..*</text>
<text text-anchor="middle" x="240.03" y="-500.78" font-family="Arial" font-size="9.00">1</text>
</g>
<!-- matieres -->
<g id="node4" class="node">
<title>matieres</title>
<polygon fill="#14213d" stroke="transparent" points="343,-1006.5 343,-1027.5 416,-1027.5 416,-1006.5 343,-1006.5"/>
<polygon fill="none" stroke="black" points="343,-1006.5 343,-1027.5 416,-1027.5 416,-1006.5 343,-1006.5"/>
<text text-anchor="start" x="355" y="-1014.9" font-family="Arial" font-weight="bold" font-size="12.00" fill="white">matieres</text>
<polygon fill="none" stroke="black" points="343,-923.5 343,-1006.5 416,-1006.5 416,-923.5 343,-923.5"/>
<text text-anchor="start" x="349" y="-993.5" font-family="Arial" font-weight="bold" font-size="10.00">id</text>
<text text-anchor="start" x="359" y="-993.5" font-family="Arial" font-size="10.00"> </text>
<text text-anchor="start" x="363" y="-993.5" font-family="Arial" font-size="9.00" fill="#c0392b">[PK]</text>
<text text-anchor="start" x="349" y="-977.5" font-family="Arial" font-size="10.00">nom</text>
<text text-anchor="start" x="349" y="-962.5" font-family="Arial" font-size="10.00">semestre</text>
<text text-anchor="start" x="349" y="-947.5" font-family="Arial" font-size="10.00">enseignant</text>
<text text-anchor="start" x="349" y="-933.5" font-family="Arial" font-size="10.00">niveau_id </text>
<text text-anchor="start" x="394" y="-933.5" font-family="Arial" font-size="9.00" fill="#c0392b">[FK]</text>
</g>
<!-- niveaux&#45;&gt;matieres -->
<g id="edge2" class="edge">
<title>niveaux&#45;&gt;matieres</title>
<path fill="none" stroke="#14213d" d="M189.02,-524.32C199.39,-607.77 228.85,-780.89 304,-905.5 310.21,-915.79 318.33,-925.55 326.93,-934.34"/>
<polygon fill="#14213d" stroke="#14213d" points="327.07,-934.49 331.07,-944.7 330.65,-937.99 334.22,-941.48 334.22,-941.48 334.22,-941.48 330.65,-937.99 337.37,-938.27 327.07,-934.49 327.07,-934.49"/>
<text text-anchor="middle" x="320.07" y="-934.3" font-family="Arial" font-size="9.00">0..*</text>
<text text-anchor="middle" x="197.11" y="-534.75" font-family="Arial" font-size="9.00">1</text>
</g>
<!-- niveaux&#45;&gt;evaluations -->
<g id="edge13" class="edge">
<title>niveaux&#45;&gt;evaluations</title>
<path fill="none" stroke="#14213d" d="M187.88,-524.02C198.71,-647.63 233.25,-969.99 304,-1046.5 333.69,-1078.6 444.82,-1105.15 523.14,-1120.42"/>
<polygon fill="#14213d" stroke="#14213d" points="523.18,-1120.43 532.15,-1126.74 528.09,-1121.38 533,-1122.32 533,-1122.32 533,-1122.32 528.09,-1121.38 533.85,-1117.9 523.18,-1120.43 523.18,-1120.43"/>
<text text-anchor="middle" x="518.45" y="-1123.78" font-family="Arial" font-size="9.00">0..*</text>
<text text-anchor="middle" x="195.45" y="-534.77" font-family="Arial" font-size="9.00">1</text>
</g>
<!-- niveaux&#45;&gt;class_messages -->
<g id="edge15" class="edge">
<title>niveaux&#45;&gt;class_messages</title>
<path fill="none" stroke="#14213d" d="M225.04,-474.62C296.91,-473.08 446.31,-469.88 534.54,-467.99"/>
<polygon fill="#14213d" stroke="#14213d" points="534.72,-467.98 544.81,-472.27 539.72,-467.88 544.72,-467.77 544.72,-467.77 544.72,-467.77 539.72,-467.88 544.62,-463.27 534.72,-467.98 534.72,-467.98"/>
<text text-anchor="middle" x="531.26" y="-472.2" font-family="Arial" font-size="9.00">0..*</text>
<text text-anchor="middle" x="238.49" y="-465.79" font-family="Arial" font-size="9.00">1</text>
</g>
<!-- niveaux&#45;&gt;posts -->
<g id="edge18" class="edge">
<title>niveaux&#45;&gt;posts</title>
<path fill="none" stroke="#14213d" d="M225.09,-439.84C247.89,-420.51 277.01,-396.55 304,-376.5 381.75,-318.75 475.1,-257.75 536.8,-218.52"/>
<polygon fill="#14213d" stroke="#14213d" points="536.84,-218.49 547.7,-216.93 541.06,-215.81 545.29,-213.13 545.29,-213.13 545.29,-213.13 541.06,-215.81 542.88,-209.33 536.84,-218.49 536.84,-218.49"/>
<text text-anchor="middle" x="537.2" y="-223.57" font-family="Arial" font-size="9.00">0..*</text>
<text text-anchor="middle" x="231.39" y="-424.03" font-family="Arial" font-size="9.00">1</text>
</g>
<!-- post_niveau -->
<g id="node13" class="node">
<title>post_niveau</title>
<polygon fill="#14213d" stroke="transparent" points="775.5,-153.5 775.5,-174.5 854.5,-174.5 854.5,-153.5 775.5,-153.5"/>
<polygon fill="none" stroke="black" points="775.5,-153.5 775.5,-174.5 854.5,-174.5 854.5,-153.5 775.5,-153.5"/>
<text text-anchor="start" x="779.5" y="-161.9" font-family="Arial" font-weight="bold" font-size="12.00" fill="white">post_niveau</text>
<polygon fill="none" stroke="black" points="775.5,-115.5 775.5,-153.5 854.5,-153.5 854.5,-115.5 775.5,-115.5"/>
<text text-anchor="start" x="781.5" y="-140.5" font-family="Arial" font-size="10.00">post_id </text>
<text text-anchor="start" x="816.5" y="-140.5" font-family="Arial" font-size="9.00" fill="#c0392b">[FK]</text>
<text text-anchor="start" x="781.5" y="-125.5" font-family="Arial" font-size="10.00">niveau_id </text>
<text text-anchor="start" x="826.5" y="-125.5" font-family="Arial" font-size="9.00" fill="#c0392b">[FK]</text>
</g>
<!-- niveaux&#45;&gt;post_niveau -->
<g id="edge24" class="edge">
<title>niveaux&#45;&gt;post_niveau</title>
<path fill="none" stroke="#14213d" d="M204.85,-426.92C225.57,-382.37 260.5,-316.25 304,-268.5 388.12,-176.14 414,-143.53 533,-105.5 608.3,-81.44 699.6,-103.35 757.13,-122.99"/>
<polygon fill="#14213d" stroke="#14213d" points="757.33,-123.06 765.28,-130.62 762.05,-124.72 766.77,-126.37 766.77,-126.37 766.77,-126.37 762.05,-124.72 768.26,-122.13 757.33,-123.06 757.33,-123.06"/>
<text text-anchor="middle" x="751.84" y="-125.66" font-family="Arial" font-size="9.00">0..*</text>
<text text-anchor="middle" x="204.96" y="-409.72" font-family="Arial" font-size="9.00">1</text>
</g>
<!-- niveaux&#45;&gt;schedules -->
<g id="edge25" class="edge">
<title>niveaux&#45;&gt;schedules</title>
<path fill="none" stroke="#14213d" d="M225.04,-460.84C300.16,-434.01 459.99,-376.93 546.13,-346.17"/>
<polygon fill="#14213d" stroke="#14213d" points="546.33,-346.1 557.26,-346.97 551.04,-344.41 555.75,-342.73 555.75,-342.73 555.75,-342.73 551.04,-344.41 554.23,-338.5 546.33,-346.1 546.33,-346.1"/>
<text text-anchor="middle" x="545.08" y="-351.08" font-family="Arial" font-size="9.00">0..*</text>
<text text-anchor="middle" x="235.71" y="-448.1" font-family="Arial" font-size="9.00">1</text>
</g>
<!-- matieres&#45;&gt;ressources -->
<g id="edge3" class="edge">
<title>matieres&#45;&gt;ressources</title>
<path fill="none" stroke="#14213d" d="M423.72,-964.37C451.88,-957.21 489.35,-947.67 522.83,-939.15"/>
<polygon fill="#14213d" stroke="#14213d" points="522.93,-939.13 533.73,-941.02 527.78,-937.9 532.62,-936.66 532.62,-936.66 532.62,-936.66 527.78,-937.9 531.51,-932.3 522.93,-939.13 522.93,-939.13"/>
<text text-anchor="middle" x="521.01" y="-943.96" font-family="Arial" font-size="9.00">0..*</text>
<text text-anchor="middle" x="435.33" y="-952.68" font-family="Arial" font-size="9.00">1</text>
</g>
<!-- matieres&#45;&gt;evaluations -->
<g id="edge11" class="edge">
<title>matieres&#45;&gt;evaluations</title>
<path fill="none" stroke="#14213d" d="M423.72,-1006.53C452.24,-1026.78 490.32,-1053.81 524.13,-1077.8"/>
<polygon fill="#14213d" stroke="#14213d" points="524.47,-1078.05 530.02,-1087.5 528.54,-1080.94 532.62,-1083.83 532.62,-1083.83 532.62,-1083.83 528.54,-1080.94 535.23,-1080.16 524.47,-1078.05 524.47,-1078.05"/>
<text text-anchor="middle" x="517.87" y="-1078.93" font-family="Arial" font-size="9.00">0..*</text>
<text text-anchor="middle" x="438.48" y="-1007.03" font-family="Arial" font-size="9.00">1</text>
</g>
<!-- annees_academiques -->
<g id="node5" class="node">
<title>annees_academiques</title>
<polygon fill="#14213d" stroke="transparent" points="312,-865.5 312,-886.5 446,-886.5 446,-865.5 312,-865.5"/>
<polygon fill="none" stroke="black" points="312,-865.5 312,-886.5 446,-886.5 446,-865.5 312,-865.5"/>
<text text-anchor="start" x="316" y="-873.9" font-family="Arial" font-weight="bold" font-size="12.00" fill="white">annees_academiques</text>
<polygon fill="none" stroke="black" points="312,-812.5 312,-865.5 446,-865.5 446,-812.5 312,-812.5"/>
<text text-anchor="start" x="318" y="-852.5" font-family="Arial" font-weight="bold" font-size="10.00">id</text>
<text text-anchor="start" x="328" y="-852.5" font-family="Arial" font-size="10.00"> </text>
<text text-anchor="start" x="332" y="-852.5" font-family="Arial" font-size="9.00" fill="#c0392b">[PK]</text>
<text text-anchor="start" x="318" y="-836.5" font-family="Arial" font-size="10.00">libelle</text>
<text text-anchor="start" x="318" y="-821.5" font-family="Arial" font-size="10.00">est_courante</text>
</g>
<!-- annees_academiques&#45;&gt;ressources -->
<g id="edge4" class="edge">
<title>annees_academiques&#45;&gt;ressources</title>
<path fill="none" stroke="#14213d" d="M454.28,-872.38C476.35,-879.18 500.64,-886.66 523.12,-893.59"/>
<polygon fill="#14213d" stroke="#14213d" points="523.41,-893.67 531.64,-900.92 528.18,-895.15 532.96,-896.62 532.96,-896.62 532.96,-896.62 528.18,-895.15 534.29,-892.32 523.41,-893.67 523.41,-893.67"/>
<text text-anchor="middle" x="518.1" y="-896.47" font-family="Arial" font-size="9.00">0..*</text>
<text text-anchor="middle" x="469.14" y="-868.12" font-family="Arial" font-size="9.00">1</text>
</g>
<!-- annees_academiques&#45;&gt;evaluations -->
<g id="edge14" class="edge">
<title>annees_academiques&#45;&gt;evaluations</title>
<path fill="none" stroke="#14213d" d="M438.62,-890.78C444.04,-895.5 449.27,-900.44 454,-905.5 464.16,-916.38 500.31,-971.47 534.57,-1024.88"/>
<polygon fill="#14213d" stroke="#14213d" points="534.66,-1025.01 536.26,-1035.86 537.35,-1029.22 540.05,-1033.43 540.05,-1033.43 540.05,-1033.43 537.35,-1029.22 543.84,-1031 534.66,-1025.01 534.66,-1025.01"/>
<text text-anchor="middle" x="527.38" y="-1023.2" font-family="Arial" font-size="9.00">0..*</text>
<text text-anchor="middle" x="453.02" y="-892.77" font-family="Arial" font-size="9.00">1</text>
</g>
<!-- ressources&#45;&gt;commentaires -->
<g id="edge6" class="edge">
<title>ressources&#45;&gt;commentaires</title>
<path fill="none" stroke="#14213d" d="M669.38,-832.36C702.54,-787.3 742.22,-733.38 771.54,-693.53"/>
<polygon fill="#14213d" stroke="#14213d" points="771.7,-693.3 781.25,-687.92 774.67,-689.28 777.63,-685.25 777.63,-685.25 777.63,-685.25 774.67,-689.28 774.01,-682.58 771.7,-693.3 771.7,-693.3"/>
<text text-anchor="middle" x="774.68" y="-697.76" font-family="Arial" font-size="9.00">0..*</text>
<text text-anchor="middle" x="672.34" y="-815.45" font-family="Arial" font-size="9.00">1</text>
</g>
<!-- ressources&#45;&gt;activites -->
<g id="edge28" class="edge">
<title>ressources&#45;&gt;activites</title>
<path fill="none" stroke="#14213d" d="M677.12,-896.22C701.87,-888.47 729.37,-879.85 753.16,-872.4"/>
<polygon fill="#14213d" stroke="#14213d" points="753.22,-872.38 764.11,-873.69 757.99,-870.89 762.76,-869.39 762.76,-869.39 762.76,-869.39 757.99,-870.89 761.42,-865.1 753.22,-872.38 753.22,-872.38"/>
<text text-anchor="middle" x="751.69" y="-877.31" font-family="Arial" font-size="9.00">0..*</text>
<text text-anchor="middle" x="688.2" y="-883.91" font-family="Arial" font-size="9.00">1</text>
</g>
<!-- posts&#45;&gt;post_comments -->
<g id="edge19" class="edge">
<title>posts&#45;&gt;post_comments</title>
<path fill="none" stroke="#14213d" d="M662.35,-232.54C667.33,-237.58 672.27,-242.62 677,-247.5 705.17,-276.53 736.1,-309.31 761.39,-336.35"/>
<polygon fill="#14213d" stroke="#14213d" points="761.54,-336.51 765.07,-346.89 764.95,-340.17 768.36,-343.82 768.36,-343.82 768.36,-343.82 764.95,-340.17 771.65,-340.75 761.54,-336.51 761.54,-336.51"/>
<text text-anchor="middle" x="754.45" y="-336.01" font-family="Arial" font-size="9.00">0..*</text>
<text text-anchor="middle" x="676.41" y="-235.57" font-family="Arial" font-size="9.00">1</text>
</g>
<!-- posts&#45;&gt;post_filiere -->
<g id="edge21" class="edge">
<title>posts&#45;&gt;post_filiere</title>
<path fill="none" stroke="#14213d" d="M664.63,-136.1C695.28,-114.97 732.46,-89.35 761.99,-69"/>
<polygon fill="#14213d" stroke="#14213d" points="762.26,-68.81 773.05,-66.84 766.38,-65.97 770.5,-63.13 770.5,-63.13 770.5,-63.13 766.38,-65.97 767.94,-59.43 762.26,-68.81 762.26,-68.81"/>
<text text-anchor="middle" x="762.9" y="-73.87" font-family="Arial" font-size="9.00">0..*</text>
<text text-anchor="middle" x="672.23" y="-120.96" font-family="Arial" font-size="9.00">1</text>
</g>
<!-- posts&#45;&gt;post_niveau -->
<g id="edge23" class="edge">
<title>posts&#45;&gt;post_niveau</title>
<path fill="none" stroke="#14213d" d="M664.63,-167.74C693.45,-163.44 728.04,-158.27 756.62,-154"/>
<polygon fill="#14213d" stroke="#14213d" points="756.96,-153.95 767.52,-156.92 761.91,-153.21 766.85,-152.47 766.85,-152.47 766.85,-152.47 761.91,-153.21 766.19,-148.02 756.96,-153.95 756.96,-153.95"/>
<text text-anchor="middle" x="754.34" y="-158.55" font-family="Arial" font-size="9.00">0..*</text>
<text text-anchor="middle" x="677.14" y="-157.26" font-family="Arial" font-size="9.00">1</text>
</g>
</g>
</svg>
