<svg xmlns="http://www.w3.org/2000/svg" width="990" height="600" viewBox="0 0 990 600"><rect width="990" height="600" fill="white"/><defs><marker id="af" markerWidth="12" markerHeight="12" refX="9" refY="4" orient="auto"><path d="M0,0 L9,4 L0,8 z" fill="#3a4658"/></marker><marker id="ar" markerWidth="12" markerHeight="12" refX="9" refY="4" orient="auto"><path d="M0,0 L9,4 L0,8" fill="none" stroke="#3a4658" stroke-width="1.2"/></marker><marker id="afr" markerWidth="12" markerHeight="12" refX="9" refY="4" orient="auto"><path d="M0,0 L9,4 L0,8" fill="none" stroke="#C0392B" stroke-width="1.2"/></marker></defs><line x1="120" y1="94" x2="120" y2="570" stroke="#3a4658" stroke-width="1.1" stroke-dasharray="5,5"/><rect x="25" y="40" width="190" height="54" rx="4" fill="#14213D" stroke="#14213D"/><text x="120" y="62" text-anchor="middle" font-family="Arial" font-size="13.5" font-weight="bold" fill="white">Étudiant</text><line x1="370" y1="94" x2="370" y2="570" stroke="#3a4658" stroke-width="1.1" stroke-dasharray="5,5"/><rect x="275" y="40" width="190" height="54" rx="4" fill="#14213D" stroke="#14213D"/><text x="370" y="62" text-anchor="middle" font-family="Arial" font-size="13.5" font-weight="bold" fill="white">Client</text><line x1="620" y1="94" x2="620" y2="570" stroke="#3a4658" stroke-width="1.1" stroke-dasharray="5,5"/><rect x="525" y="40" width="190" height="54" rx="4" fill="#14213D" stroke="#14213D"/><text x="620" y="62" text-anchor="middle" font-family="Arial" font-size="13.5" font-weight="bold" fill="white">API Laravel</text><line x1="870" y1="94" x2="870" y2="570" stroke="#3a4658" stroke-width="1.1" stroke-dasharray="5,5"/><rect x="775" y="40" width="190" height="54" rx="4" fill="#14213D" stroke="#14213D"/><text x="870" y="62" text-anchor="middle" font-family="Arial" font-size="13.5" font-weight="bold" fill="white">MySQL</text><line x1="120" y1="134" x2="370" y2="134" stroke="#3a4658" stroke-width="1.6"  marker-end="url(#af)"/><text x="245.0" y="128" text-anchor="middle" font-family="Arial" font-size="12.5" fill="#111">saisit mot-clé + filtres</text><line x1="370" y1="192" x2="620" y2="192" stroke="#3a4658" stroke-width="1.6"  marker-end="url(#af)"/><text x="495.0" y="186" text-anchor="middle" font-family="Arial" font-size="12.5" fill="#111">GET /api/ressources?search=X</text><path d="M620,250 h55 v22 h-53" fill="none" stroke="#3a4658" stroke-width="1.4" marker-end="url(#af)"/><text x="682" y="246" font-family="Arial" font-size="12.5" fill="#111">auth:sanctum</text><line x1="620" y1="308" x2="870" y2="308" stroke="#3a4658" stroke-width="1.6"  marker-end="url(#af)"/><text x="745.0" y="302" text-anchor="middle" font-family="Arial" font-size="12.5" fill="#111">SELECT WHERE filiere_id = user AND niveau.ordre &lt;= user AND titre LIKE %X%</text><line x1="870" y1="366" x2="620" y2="366" stroke="#3a4658" stroke-width="1.6" stroke-dasharray="6,4" marker-end="url(#ar)"/><text x="745.0" y="360" text-anchor="middle" font-family="Arial" font-size="12.5" fill="#111">ressources du périmètre</text><line x1="620" y1="424" x2="370" y2="424" stroke="#3a4658" stroke-width="1.6" stroke-dasharray="6,4" marker-end="url(#ar)"/><text x="495.0" y="418" text-anchor="middle" font-family="Arial" font-size="12.5" fill="#111">JSON (liste filtrée)</text><line x1="370" y1="482" x2="120" y2="482" stroke="#3a4658" stroke-width="1.6" stroke-dasharray="6,4" marker-end="url(#ar)"/><text x="245.0" y="476" text-anchor="middle" font-family="Arial" font-size="12.5" fill="#111">affiche les ressources autorisées</text></svg>