<?xml version="1.0" encoding="UTF-8" standalone="no"?>
<!DOCTYPE svg PUBLIC "-//W3C//DTD SVG 1.1//EN"
 "http://www.w3.org/Graphics/SVG/1.1/DTD/svg11.dtd">
<!-- Generated by graphviz version 2.43.0 (0)
 -->
<!-- Title: G Pages: 1 -->
<svg width="812pt" height="623pt"
 viewBox="0.00 0.00 812.00 623.00" xmlns="http://www.w3.org/2000/svg" xmlns:xlink="http://www.w3.org/1999/xlink">
<g id="graph0" class="graph" transform="scale(1 1) rotate(0) translate(4 619)">
<title>G</title>
<polygon fill="white" stroke="transparent" points="-4,4 -4,-619 808,-619 808,4 -4,4"/>
<!-- Filiere -->
<g id="node1" class="node">
<title>Filiere</title>
<polygon fill="#14213d" stroke="transparent" points="472,-588 472,-611 527,-611 527,-588 472,-588"/>
<polygon fill="none" stroke="black" points="472,-588 472,-611 527,-611 527,-588 472,-588"/>
<text text-anchor="start" x="482" y="-597.4" font-family="Arial" font-weight="bold" font-size="12.00" fill="white">Filiere</text>
<polygon fill="none" stroke="black" points="472,-533 472,-588 527,-588 527,-533 472,-533"/>
<text text-anchor="start" x="479" y="-573" font-family="Arial" font-size="10.00">+ code</text>
<text text-anchor="start" x="479" y="-558" font-family="Arial" font-size="10.00">+ nom</text>
<text text-anchor="start" x="479" y="-543" font-family="Arial" font-size="10.00">+ couleur</text>
</g>
<!-- Niveau -->
<g id="node2" class="node">
<title>Niveau</title>
<polygon fill="#14213d" stroke="transparent" points="474,-451.5 474,-474.5 524,-474.5 524,-451.5 474,-451.5"/>
<polygon fill="none" stroke="black" points="474,-451.5 474,-474.5 524,-474.5 524,-451.5 474,-451.5"/>
<text text-anchor="start" x="479" y="-460.9" font-family="Arial" font-weight="bold" font-size="12.00" fill="white">Niveau</text>
<polygon fill="none" stroke="black" points="474,-411.5 474,-451.5 524,-451.5 524,-411.5 474,-411.5"/>
<text text-anchor="start" x="481" y="-436.5" font-family="Arial" font-size="10.00">+ nom</text>
<text text-anchor="start" x="481" y="-421.5" font-family="Arial" font-size="10.00">+ ordre</text>
</g>
<!-- Filiere&#45;&gt;Niveau -->
<g id="edge1" class="edge">
<title>Filiere&#45;&gt;Niveau</title>
<path fill="none" stroke="#14213d" d="M499,-528.88C499,-512.78 499,-494.62 499,-479.28"/>
<text text-anchor="middle" x="492.24" y="-491.28" font-family="Arial" font-size="10.00">0..*</text>
<text text-anchor="middle" x="505.76" y="-511.88" font-family="Arial" font-size="10.00">1</text>
</g>
<!-- User -->
<g id="node4" class="node">
<title>User</title>
<polygon fill="#14213d" stroke="transparent" points="371,-331 371,-354 436,-354 436,-331 371,-331"/>
<polygon fill="none" stroke="black" points="371,-331 371,-354 436,-354 436,-331 371,-331"/>
<text text-anchor="start" x="389.5" y="-340.4" font-family="Arial" font-weight="bold" font-size="12.00" fill="white">User</text>
<polygon fill="none" stroke="black" points="371,-246 371,-331 436,-331 436,-246 371,-246"/>
<text text-anchor="start" x="378" y="-316" font-family="Arial" font-size="10.00">+ name</text>
<text text-anchor="start" x="378" y="-301" font-family="Arial" font-size="10.00">+ email</text>
<text text-anchor="start" x="378" y="-286" font-family="Arial" font-size="10.00">+ role</text>
<text text-anchor="start" x="378" y="-271" font-family="Arial" font-size="10.00">+ filiere_id</text>
<text text-anchor="start" x="378" y="-256" font-family="Arial" font-size="10.00">+ niveau_id</text>
</g>
<!-- Filiere&#45;&gt;User -->
<g id="edge8" class="edge">
<title>Filiere&#45;&gt;User</title>
<path fill="none" stroke="#14213d" d="M472.49,-528.6C463.79,-513.38 454.65,-495.81 448,-479 432.51,-439.88 421.03,-393.78 413.55,-358.29"/>
<text text-anchor="middle" x="410" y="-371.4" font-family="Arial" font-size="10.00">0..*</text>
<text text-anchor="middle" x="471.24" y="-510.15" font-family="Arial" font-size="10.00">1</text>
</g>
<!-- Matiere -->
<g id="node3" class="node">
<title>Matiere</title>
<polygon fill="#14213d" stroke="transparent" points="181,-316 181,-339 252,-339 252,-316 181,-316"/>
<polygon fill="none" stroke="black" points="181,-316 181,-339 252,-339 252,-316 181,-316"/>
<text text-anchor="start" x="195.5" y="-325.4" font-family="Arial" font-weight="bold" font-size="12.00" fill="white">Matiere</text>
<polygon fill="none" stroke="black" points="181,-261 181,-316 252,-316 252,-261 181,-261"/>
<text text-anchor="start" x="188" y="-301" font-family="Arial" font-size="10.00">+ nom</text>
<text text-anchor="start" x="188" y="-286" font-family="Arial" font-size="10.00">+ semestre</text>
<text text-anchor="start" x="188" y="-271" font-family="Arial" font-size="10.00">+ enseignant</text>
</g>
<!-- Niveau&#45;&gt;Matiere -->
<g id="edge2" class="edge">
<title>Niveau&#45;&gt;Matiere</title>
<path fill="none" stroke="#14213d" d="M465.98,-425.99C414.95,-400.48 316.87,-351.44 259.92,-322.96"/>
<text text-anchor="middle" x="269.86" y="-332.99" font-family="Arial" font-size="10.00">0..*</text>
<text text-anchor="middle" x="456.04" y="-410.96" font-family="Arial" font-size="10.00">1</text>
</g>
<!-- Niveau&#45;&gt;User -->
<g id="edge9" class="edge">
<title>Niveau&#45;&gt;User</title>
<path fill="none" stroke="#14213d" d="M475.52,-407.89C465.36,-392.91 453.2,-374.99 441.76,-358.14"/>
<text text-anchor="middle" x="444.31" y="-371.43" font-family="Arial" font-size="10.00">0..*</text>
<text text-anchor="middle" x="472.97" y="-389.59" font-family="Arial" font-size="10.00">1</text>
</g>
<!-- ClassMessage -->
<g id="node9" class="node">
<title>ClassMessage</title>
<polygon fill="#14213d" stroke="transparent" points="592,-150 592,-173 686,-173 686,-150 592,-150"/>
<polygon fill="none" stroke="black" points="592,-150 592,-173 686,-173 686,-150 592,-150"/>
<text text-anchor="start" x="597" y="-159.4" font-family="Arial" font-weight="bold" font-size="12.00" fill="white">ClassMessage</text>
<polygon fill="none" stroke="black" points="592,-125 592,-150 686,-150 686,-125 592,-125"/>
<text text-anchor="start" x="599" y="-135" font-family="Arial" font-size="10.00">+ contenu</text>
</g>
<!-- Niveau&#45;&gt;ClassMessage -->
<g id="edge12" class="edge">
<title>Niveau&#45;&gt;ClassMessage</title>
<path fill="none" stroke="#14213d" d="M515.61,-407.8C543.79,-348.93 600.37,-230.7 625.94,-177.29"/>
<text text-anchor="middle" x="613.58" y="-184.95" font-family="Arial" font-size="10.00">0..*</text>
<text text-anchor="middle" x="527.97" y="-395.14" font-family="Arial" font-size="10.00">1</text>
</g>
<!-- Schedule -->
<g id="node12" class="node">
<title>Schedule</title>
<polygon fill="#14213d" stroke="transparent" points="453,-165 453,-188 540,-188 540,-165 453,-165"/>
<polygon fill="none" stroke="black" points="453,-165 453,-188 540,-188 540,-165 453,-165"/>
<text text-anchor="start" x="469" y="-174.4" font-family="Arial" font-weight="bold" font-size="12.00" fill="white">Schedule</text>
<polygon fill="none" stroke="black" points="453,-110 453,-165 540,-165 540,-110 453,-110"/>
<text text-anchor="start" x="460" y="-150" font-family="Arial" font-size="10.00">+ scope</text>
<text text-anchor="start" x="460" y="-135" font-family="Arial" font-size="10.00">+ titre</text>
<text text-anchor="start" x="460" y="-120" font-family="Arial" font-size="10.00">+ chemin_fichier</text>
</g>
<!-- Niveau&#45;&gt;Schedule -->
<g id="edge17" class="edge">
<title>Niveau&#45;&gt;Schedule</title>
<path fill="none" stroke="#14213d" d="M498.64,-407.8C498.09,-353.92 497.03,-250.33 496.43,-192.21"/>
<text text-anchor="middle" x="489.82" y="-204.28" font-family="Arial" font-size="10.00">0..*</text>
<text text-anchor="middle" x="505.26" y="-390.73" font-family="Arial" font-size="10.00">1</text>
</g>
<!-- Ressource -->
<g id="node5" class="node">
<title>Ressource</title>
<polygon fill="#14213d" stroke="transparent" points="8,-165 8,-188 128,-188 128,-165 8,-165"/>
<polygon fill="none" stroke="black" points="8,-165 8,-188 128,-188 128,-165 8,-165"/>
<text text-anchor="start" x="36.5" y="-174.4" font-family="Arial" font-weight="bold" font-size="12.00" fill="white">Ressource</text>
<polygon fill="none" stroke="black" points="8,-110 8,-165 128,-165 128,-110 8,-110"/>
<text text-anchor="start" x="15" y="-150" font-family="Arial" font-size="10.00">+ titre</text>
<text text-anchor="start" x="15" y="-135" font-family="Arial" font-size="10.00">+ type_fichier</text>
<text text-anchor="start" x="15" y="-120" font-family="Arial" font-size="10.00">+ annee_academique_id</text>
</g>
<!-- Matiere&#45;&gt;Ressource -->
<g id="edge3" class="edge">
<title>Matiere&#45;&gt;Ressource</title>
<path fill="none" stroke="#14213d" d="M173.99,-256.7C153.9,-236.48 129.93,-212.35 109.86,-192.15"/>
<text text-anchor="middle" x="115.29" y="-204.7" font-family="Arial" font-size="10.00">0..*</text>
<text text-anchor="middle" x="168.56" y="-239.15" font-family="Arial" font-size="10.00">1</text>
</g>
<!-- Evaluation -->
<g id="node8" class="node">
<title>Evaluation</title>
<polygon fill="#14213d" stroke="transparent" points="181,-165 181,-188 252,-188 252,-165 181,-165"/>
<polygon fill="none" stroke="black" points="181,-165 181,-188 252,-188 252,-165 181,-165"/>
<text text-anchor="start" x="186" y="-174.4" font-family="Arial" font-weight="bold" font-size="12.00" fill="white">Evaluation</text>
<polygon fill="none" stroke="black" points="181,-110 181,-165 252,-165 252,-110 181,-110"/>
<text text-anchor="start" x="188" y="-150" font-family="Arial" font-size="10.00">+ note</text>
<text text-anchor="start" x="188" y="-135" font-family="Arial" font-size="10.00">+ semestre</text>
<text text-anchor="start" x="188" y="-120" font-family="Arial" font-size="10.00">+ enseignant</text>
</g>
<!-- Matiere&#45;&gt;Evaluation -->
<g id="edge11" class="edge">
<title>Matiere&#45;&gt;Evaluation</title>
<path fill="none" stroke="#14213d" d="M216,-256.7C216,-236.48 216,-212.35 216,-192.15"/>
<text text-anchor="middle" x="209.24" y="-204.15" font-family="Arial" font-size="10.00">0..*</text>
<text text-anchor="middle" x="222.76" y="-239.7" font-family="Arial" font-size="10.00">1</text>
</g>
<!-- User&#45;&gt;Ressource -->
<g id="edge5" class="edge">
<title>User&#45;&gt;Ressource</title>
<path fill="none" stroke="#14213d" d="M362.38,-279.96C338.02,-268.67 306.36,-254.23 278,-242 223.81,-218.64 208.93,-215.95 155,-192 148.87,-189.28 142.53,-186.38 136.2,-183.43"/>
<text text-anchor="middle" x="146.49" y="-193.18" font-family="Arial" font-size="10.00">0..*</text>
<text text-anchor="middle" x="352.05" y="-265.23" font-family="Arial" font-size="10.00">1</text>
</g>
<!-- Commentaire -->
<g id="node6" class="node">
<title>Commentaire</title>
<polygon fill="#14213d" stroke="transparent" points="193,-29 193,-52 280,-52 280,-29 193,-29"/>
<polygon fill="none" stroke="black" points="193,-29 193,-52 280,-52 280,-29 193,-29"/>
<text text-anchor="start" x="198" y="-38.4" font-family="Arial" font-weight="bold" font-size="12.00" fill="white">Commentaire</text>
<polygon fill="none" stroke="black" points="193,-4 193,-29 280,-29 280,-4 193,-4"/>
<text text-anchor="start" x="200" y="-14" font-family="Arial" font-size="10.00">+ contenu</text>
</g>
<!-- User&#45;&gt;Commentaire -->
<g id="edge7" class="edge">
<title>User&#45;&gt;Commentaire</title>
<path fill="none" stroke="#14213d" d="M367.58,-241.74C332.25,-184.62 279.5,-99.33 252.79,-56.15"/>
<text text-anchor="middle" x="254.67" y="-69.54" font-family="Arial" font-size="10.00">0..*</text>
<text text-anchor="middle" x="365.71" y="-223.35" font-family="Arial" font-size="10.00">1</text>
</g>
<!-- User&#45;&gt;Evaluation -->
<g id="edge10" class="edge">
<title>User&#45;&gt;Evaluation</title>
<path fill="none" stroke="#14213d" d="M362.42,-266.67C332.13,-242.53 290.79,-209.59 259.76,-184.87"/>
<text text-anchor="middle" x="266.89" y="-196.69" font-family="Arial" font-size="10.00">0..*</text>
<text text-anchor="middle" x="355.3" y="-249.84" font-family="Arial" font-size="10.00">1</text>
</g>
<!-- User&#45;&gt;ClassMessage -->
<g id="edge13" class="edge">
<title>User&#45;&gt;ClassMessage</title>
<path fill="none" stroke="#14213d" d="M443.57,-273.39C486.14,-246.51 552.77,-204.44 596.17,-177.04"/>
<text text-anchor="middle" x="580.3" y="-176.56" font-family="Arial" font-size="10.00">0..*</text>
<text text-anchor="middle" x="459.44" y="-268.86" font-family="Arial" font-size="10.00">1</text>
</g>
<!-- Post -->
<g id="node10" class="node">
<title>Post</title>
<polygon fill="#14213d" stroke="transparent" points="738,-157 738,-180 796,-180 796,-157 738,-157"/>
<polygon fill="none" stroke="black" points="738,-157 738,-180 796,-180 796,-157 738,-157"/>
<text text-anchor="start" x="753.5" y="-166.4" font-family="Arial" font-weight="bold" font-size="12.00" fill="white">Post</text>
<polygon fill="none" stroke="black" points="738,-117 738,-157 796,-157 796,-117 738,-117"/>
<text text-anchor="start" x="745" y="-142" font-family="Arial" font-size="10.00">+ contenu</text>
<text text-anchor="start" x="745" y="-127" font-family="Arial" font-size="10.00">+ image</text>
</g>
<!-- User&#45;&gt;Post -->
<g id="edge14" class="edge">
<title>User&#45;&gt;Post</title>
<path fill="none" stroke="#14213d" d="M443.71,-289.35C504.49,-273.97 621.47,-240.61 712,-192 718.03,-188.76 724.11,-184.88 729.9,-180.81"/>
<text text-anchor="middle" x="714.14" y="-181.04" font-family="Arial" font-size="10.00">0..*</text>
<text text-anchor="middle" x="459.45" y="-289.75" font-family="Arial" font-size="10.00">1</text>
</g>
<!-- PostComment -->
<g id="node11" class="node">
<title>PostComment</title>
<polygon fill="#14213d" stroke="transparent" points="421,-29 421,-52 513,-52 513,-29 421,-29"/>
<polygon fill="none" stroke="black" points="421,-29 421,-52 513,-52 513,-29 421,-29"/>
<text text-anchor="start" x="426" y="-38.4" font-family="Arial" font-weight="bold" font-size="12.00" fill="white">PostComment</text>
<polygon fill="none" stroke="black" points="421,-4 421,-29 513,-29 513,-4 421,-4"/>
<text text-anchor="start" x="428" y="-14" font-family="Arial" font-size="10.00">+ contenu</text>
</g>
<!-- User&#45;&gt;PostComment -->
<g id="edge16" class="edge">
<title>User&#45;&gt;PostComment</title>
<path fill="none" stroke="#14213d" d="M404.81,-241.72C407.32,-202.72 413.22,-150.33 427,-106 432.41,-88.59 441.64,-70.44 449.88,-56.13"/>
<text text-anchor="middle" x="436.84" y="-62.92" font-family="Arial" font-size="10.00">0..*</text>
<text text-anchor="middle" x="412.58" y="-225.24" font-family="Arial" font-size="10.00">1</text>
</g>
<!-- User&#45;&gt;Schedule -->
<g id="edge18" class="edge">
<title>User&#45;&gt;Schedule</title>
<path fill="none" stroke="#14213d" d="M438.69,-241.82C448.93,-225.41 459.92,-207.8 469.51,-192.45"/>
<text text-anchor="middle" x="456.09" y="-198.67" font-family="Arial" font-size="10.00">0..*</text>
<text text-anchor="middle" x="452.1" y="-230.6" font-family="Arial" font-size="10.00">1</text>
</g>
<!-- Ressource&#45;&gt;Commentaire -->
<g id="edge6" class="edge">
<title>Ressource&#45;&gt;Commentaire</title>
<path fill="none" stroke="#14213d" d="M127.7,-105.71C151,-89.21 177.02,-70.78 197.72,-56.12"/>
<text text-anchor="middle" x="181.98" y="-56.48" font-family="Arial" font-size="10.00">0..*</text>
<text text-anchor="middle" x="143.45" y="-100.35" font-family="Arial" font-size="10.00">1</text>
</g>
<!-- AnneeAcademique -->
<g id="node7" class="node">
<title>AnneeAcademique</title>
<polygon fill="#14213d" stroke="transparent" points="8,-308 8,-331 128,-331 128,-308 8,-308"/>
<polygon fill="none" stroke="black" points="8,-308 8,-331 128,-331 128,-308 8,-308"/>
<text text-anchor="start" x="13" y="-317.4" font-family="Arial" font-weight="bold" font-size="12.00" fill="white">AnneeAcademique</text>
<polygon fill="none" stroke="black" points="8,-268 8,-308 128,-308 128,-268 8,-268"/>
<text text-anchor="start" x="15" y="-293" font-family="Arial" font-size="10.00">+ libelle</text>
<text text-anchor="start" x="15" y="-278" font-family="Arial" font-size="10.00">+ est_courante</text>
</g>
<!-- AnneeAcademique&#45;&gt;Ressource -->
<g id="edge4" class="edge">
<title>AnneeAcademique&#45;&gt;Ressource</title>
<path fill="none" stroke="#14213d" d="M68,-264.44C68,-242.86 68,-214.94 68,-192.08"/>
<text text-anchor="middle" x="61.24" y="-204.08" font-family="Arial" font-size="10.00">0..*</text>
<text text-anchor="middle" x="74.76" y="-247.44" font-family="Arial" font-size="10.00">1</text>
</g>
<!-- Post&#45;&gt;Filiere -->
<g id="edge19" class="edge">
<title>Post&#45;&gt;Filiere</title>
<path fill="none" stroke="#14213d" d="M754.6,-184.51C738.64,-226.94 708.69,-300.4 673,-358 631.88,-424.36 572.31,-492.84 534.63,-533.66"/>
<text text-anchor="middle" x="549.4" y="-525.02" font-family="Arial" font-size="10.00">0..*</text>
<text text-anchor="middle" x="743.11" y="-193.15" font-family="Arial" font-size="10.00">0..*</text>
</g>
<!-- Post&#45;&gt;Niveau -->
<g id="edge20" class="edge">
<title>Post&#45;&gt;Niveau</title>
<path fill="none" stroke="#14213d" d="M741.15,-184.54C708.78,-226.99 650.78,-300.47 595,-358 575.22,-378.4 551.22,-399.53 532.16,-415.55"/>
<text text-anchor="middle" x="547.6" y="-408.85" font-family="Arial" font-size="10.00">0..*</text>
<text text-anchor="middle" x="726.96" y="-189.43" font-family="Arial" font-size="10.00">0..*</text>
</g>
<!-- Post&#45;&gt;PostComment -->
<g id="edge15" class="edge">
<title>Post&#45;&gt;PostComment</title>
<path fill="none" stroke="#14213d" d="M729.99,-117.03C724.18,-112.98 718.08,-109.15 712,-106 650.05,-73.88 572.29,-52.26 521.19,-40.3"/>
<text text-anchor="middle" x="533.7" y="-47.77" font-family="Arial" font-size="10.00">0..*</text>
<text text-anchor="middle" x="721.89" y="-100.73" font-family="Arial" font-size="10.00">1</text>
</g>
</g>
</svg>
